<svg id="Layer_1" data-name="Layer 1" xmlns="http://www.w3.org/2000/svg" viewBox="0 0 1593 1865"><defs><style>.cls-1{fill:#e3eff4;}</style></defs><title>background-line-blue</title><path class="cls-1" d="M1597,1056.6a1116.9,1116.9,0,0,1-115.4-36.1c-44.5-20.9-88.2-43.5-131.5-67-40.9-22.2-81.3-45.4-119.9-71.2a848,848,0,0,1-76-80.3c-15-20.5-29.8-41-45-61.4-36-48.6-72.7-96.7-110.4-143.8-14.7-18.3-29.8-36.2-45.7-53.5a854,854,0,0,0-97.4-89.9c-64.2-50.8-127.8-102.4-198.4-144a1065.9,1065.9,0,0,0-118.7-60.2c-75.8-32.7-151.2-66.4-230.2-90.6a1373.3,1373.3,0,0,0-142.9-35.3c-25.6-4.9-51.4-9.1-77.2-12.7L4,98.7v909.6a1265.6,1265.6,0,0,1,127.5,38.9A1028.5,1028.5,0,0,1,257.8,1120a963.9,963.9,0,0,1,95.2,98.6c13.8,18.9,27.5,37.9,41.5,56.8,48.8,66.1,97.7,133.3,152.9,194.3S671,1580.9,737.5,1630.9c37.2,28,76.8,52.7,117.2,75.7,116.3,66.5,237.4,121.4,361.6,171.3,45.1,18.2,91.3,34,138.5,46.1q36.6,9.4,73.8,16c55.8,9.8,112.1,17.2,168.4,23.7Z" transform="translate(-4 -98.7)"/></svg>