<svg id="Layer_1" data-name="Layer 1" xmlns="http://www.w3.org/2000/svg" viewBox="0 0 369.75 99.78">
  <title>logo</title>
  <g>
    <g>
      <path d="M306.57,45.23l-1.84,6.17-.25,8.35a39.46,39.46,0,0,0,7.84,19.42,42.49,42.49,0,0,0,22.92,15.94c.15,0,.29.12.43.17a58.64,58.64,0,0,0,7.25,1,80.84,80.84,0,0,0,8.21-.66c3-1.38,6.17-2.43,8.87-4.2,4.87-3.17,7.81-7.93,9.34-13.62a3.56,3.56,0,0,1,.17-.41,1,1,0,0,1,0-.25,32.65,32.65,0,0,0-.33-15.46,42.74,42.74,0,0,0-19.94-25.85,37.41,37.41,0,0,0-15.09-5.15,1.72,1.72,0,0,1-.43-.16c-.29,0-.58,0-.86,0l-7.55.36-6.12,1.77A24.4,24.4,0,0,0,306.57,45.23Z" transform="translate(-16.98 -12.9)" fill="#f0e635" stroke="#000" stroke-miterlimit="10"/>
      <path d="M325.31,30.83l7.55-.36c.28,0,.57,0,.86,0a4.75,4.75,0,0,1,5.36-3.32,113.76,113.76,0,0,1,11.61,2.14c2.38.52,4.69,1.5,7.07,2a9.78,9.78,0,0,0,4.26.16c2.11-.52,2.4-2.85.85-4.77-3.61-4.5-8.28-7.49-13.37-9.84A33.66,33.66,0,0,0,336,13.41a10.53,10.53,0,0,0-9.5,4.94c-2.26,3.36-2,7.28-1.47,11.24C325.12,30,325.23,30.42,325.31,30.83Z" transform="translate(-16.98 -12.9)" fill="#f0e635" stroke="#000" stroke-miterlimit="10"/>
      <path d="M304.48,59.75l.25-8.35a71.46,71.46,0,0,0-7.55-.46c-4.46.18-7.33,2.78-9,6.59-1.23,2.8-1,5.93-.32,9A41.64,41.64,0,0,0,295,82.63a51.39,51.39,0,0,0,5.64,6.09,3.1,3.1,0,0,0,3.57.91,2.92,2.92,0,0,0,1.54-3.48c-.46-2.4-1.26-4.76-1.8-7.16-1-4.42-2.1-8.84-2.77-13.29C300.67,62.64,302.3,60.27,304.48,59.75Z" transform="translate(-16.98 -12.9)" fill="#f0e635" stroke="#000" stroke-miterlimit="10"/>
      <path d="M306.57,45.23A24.4,24.4,0,0,1,319.19,32.6c-3.56-1.34-6-3.9-8.13-7C308,21,303.94,18,298.37,17.93c-4.91-.06-6.86,2.87-6.42,7.46a13.79,13.79,0,0,0,5,9.61c1.57,1.31,3.18,2.59,4.87,3.75a14,14,0,0,1,4.51,5.92C306.4,44.85,306.48,45,306.57,45.23Z" transform="translate(-16.98 -12.9)" fill="#f0e635" stroke="#000" stroke-miterlimit="10"/>
      <path d="M369.18,61.66a32.65,32.65,0,0,1,.33,15.46,1,1,0,0,0,0,.25,81.09,81.09,0,0,0,8.64,3.41,7.17,7.17,0,0,0,7.36-1.72c1-1,.93-2.51,0-4.18a26.39,26.39,0,0,0-8.72-8.95C374.33,64.35,371.72,63.08,369.18,61.66Z" transform="translate(-16.98 -12.9)" fill="#f0e635" stroke="#000" stroke-miterlimit="10"/>
      <path d="M351.13,95.6a80.84,80.84,0,0,1-8.21.66,58.64,58.64,0,0,1-7.25-1c1.57,2.77,3,5.64,4.75,8.27a26.33,26.33,0,0,0,7.69,7.54c3.09,2,5.61,1.32,6.47-2.08C355.81,104.16,354,99.75,351.13,95.6Z" transform="translate(-16.98 -12.9)" fill="#f0e635" stroke="#000" stroke-miterlimit="10"/>
    </g>
    <path d="M310.83,47.74l-1.58,5.32L309,60.25A33.9,33.9,0,0,0,315.79,77a36.61,36.61,0,0,0,19.74,13.73c.13,0,.25.1.37.15a49.93,49.93,0,0,0,6.24.84,69.87,69.87,0,0,0,7.08-.57c2.56-1.18,5.31-2.1,7.64-3.61,4.19-2.73,6.72-6.84,8.05-11.74a2.55,2.55,0,0,1,.14-.35.81.81,0,0,1,0-.22,28,28,0,0,0-.28-13.31,36.84,36.84,0,0,0-17.18-22.27,32.24,32.24,0,0,0-13-4.43,1.86,1.86,0,0,1-.37-.14c-.25,0-.5,0-.74,0l-6.5.31-5.27,1.53A21,21,0,0,0,310.83,47.74Z" transform="translate(-16.98 -12.9)" fill="#f0e635" stroke="#000" stroke-miterlimit="10" stroke-width="0.75"/>
    <line x1="318.32" y1="23.68" x2="319.71" y2="39.38" fill="none" stroke="#000" stroke-miterlimit="10" stroke-width="0.75"/>
    <path d="M336.06,53.82" transform="translate(-16.98 -12.9)" fill="none" stroke="#000" stroke-miterlimit="10" stroke-width="0.75"/>
    <path d="M312.54,62.41" transform="translate(-16.98 -12.9)" fill="none" stroke="#000" stroke-miterlimit="10" stroke-width="0.75"/>
    <path d="M326,62.93" transform="translate(-16.98 -12.9)" fill="none" stroke="#000" stroke-miterlimit="10" stroke-width="0.75"/>
    <line x1="293.17" y1="47.94" x2="309.28" y2="49.95" fill="none" stroke="#000" stroke-miterlimit="10" stroke-width="0.75"/>
    <line x1="319.07" y1="40.61" x2="310.27" y2="49.41" fill="none" stroke="#000" stroke-miterlimit="10" stroke-width="0.75"/>
    <line x1="320.36" y1="40.53" x2="329.05" y2="43.98" fill="none" stroke="#000" stroke-miterlimit="10" stroke-width="0.75"/>
    <line x1="333.37" y1="53.29" x2="329.92" y2="44.6" fill="none" stroke="#000" stroke-miterlimit="10" stroke-width="0.75"/>
    <line x1="310.06" y1="50.57" x2="313.51" y2="59.26" fill="none" stroke="#000" stroke-miterlimit="10" stroke-width="0.75"/>
    <line x1="322.82" y1="63.57" x2="314.13" y2="60.12" fill="none" stroke="#000" stroke-miterlimit="10" stroke-width="0.75"/>
    <line x1="332.76" y1="54.3" x2="323.96" y2="63.1" fill="none" stroke="#000" stroke-miterlimit="10" stroke-width="0.75"/>
    <line x1="347.5" y1="54.94" x2="333.97" y2="53.64" fill="none" stroke="#000" stroke-miterlimit="10" stroke-width="0.75"/>
    <line x1="324.79" y1="77.65" x2="323.4" y2="64.07" fill="none" stroke="#000" stroke-miterlimit="10" stroke-width="0.75"/>
    <line x1="313.22" y1="60.09" x2="304.42" y2="68.88" fill="none" stroke="#000" stroke-miterlimit="10" stroke-width="0.75"/>
    <line x1="338.75" y1="35.09" x2="329.96" y2="43.89" fill="none" stroke="#000" stroke-miterlimit="10" stroke-width="0.75"/>
  </g>
  <g>
    <path d="M17,83.62V31.08H38.74A13.68,13.68,0,0,1,45,32.52a16.47,16.47,0,0,1,4.92,3.77,18,18,0,0,1,3.26,5.3,16.17,16.17,0,0,1,1.18,6,17.85,17.85,0,0,1-1.11,6.25,16.83,16.83,0,0,1-3.11,5.29,15.47,15.47,0,0,1-4.77,3.7,13.44,13.44,0,0,1-6.18,1.41h-17V83.62Zm5.18-24H39a8.75,8.75,0,0,0,4.18-1A10.09,10.09,0,0,0,46.36,56a12.39,12.39,0,0,0,2.07-3.85,14.13,14.13,0,0,0,.74-4.55A12.73,12.73,0,0,0,46,39.14a10.53,10.53,0,0,0-3.4-2.55,9.49,9.49,0,0,0-4.11-.92H22.16Z" transform="translate(-16.98 -12.9)" fill="#464646"/>
    <path d="M77.73,84.36A18.28,18.28,0,0,1,70,82.77a19,19,0,0,1-6-4.33,19.44,19.44,0,0,1-4-6.37,21.27,21.27,0,0,1,0-15.31,20.41,20.41,0,0,1,4-6.37,19.35,19.35,0,0,1,6-4.36,17.69,17.69,0,0,1,7.62-1.63A17.9,17.9,0,0,1,85.39,46a19.18,19.18,0,0,1,6.07,4.36A20.55,20.55,0,0,1,96.9,64.45a20.78,20.78,0,0,1-1.41,7.62,19.44,19.44,0,0,1-4,6.37,18.85,18.85,0,0,1-6.06,4.33A18.57,18.57,0,0,1,77.73,84.36Zm-14-19.83a16.09,16.09,0,0,0,1.11,6,16.55,16.55,0,0,0,3,4.88,13.4,13.4,0,0,0,4.44,3.29,12.81,12.81,0,0,0,5.44,1.19,12.48,12.48,0,0,0,5.44-1.22,14.52,14.52,0,0,0,4.48-3.33,16,16,0,0,0,3-4.92,17,17,0,0,0,0-12.1,15.74,15.74,0,0,0-3-5,14.21,14.21,0,0,0-4.48-3.33,12.34,12.34,0,0,0-5.44-1.22,12.14,12.14,0,0,0-5.4,1.22,14.21,14.21,0,0,0-4.44,3.37,16.23,16.23,0,0,0-3,5A16.7,16.7,0,0,0,63.75,64.53Z" transform="translate(-16.98 -12.9)" fill="#464646"/>
    <path d="M105.56,29.6h5V74.89a4.61,4.61,0,0,0,1.18,3.36,4.4,4.4,0,0,0,3.33,1.22,9.83,9.83,0,0,0,1.93-.22,12.51,12.51,0,0,0,2.07-.59l.89,4.07a16,16,0,0,1-3.44,1,19.79,19.79,0,0,1-3.52.37,7.49,7.49,0,0,1-5.48-2,7.37,7.37,0,0,1-2-5.51Z" transform="translate(-16.98 -12.9)" fill="#464646"/>
    <path d="M126.87,95.46c.39.05.78.08,1.15.11s.72,0,1.07,0a5.09,5.09,0,0,0,2.11-.37,3.9,3.9,0,0,0,1.51-1.63A26.12,26.12,0,0,0,134.38,90c.62-1.58,1.49-3.7,2.63-6.36l-16.8-38.56h5.18L139.67,79l13.25-33.9h4.81l-20,49.73a9.19,9.19,0,0,1-2.7,3.74,7.76,7.76,0,0,1-5.15,1.59c-.49,0-1,0-1.4,0a15.17,15.17,0,0,1-1.63-.18Z" transform="translate(-16.98 -12.9)" fill="#464646"/>
    <path d="M180.08,84.36a18.54,18.54,0,0,1-7.74-1.59,18.9,18.9,0,0,1-6.1-4.37,20.34,20.34,0,0,1-4-6.4,20.88,20.88,0,0,1-1.44-7.77,20.38,20.38,0,0,1,1.44-7.66,20,20,0,0,1,4-6.29A18.94,18.94,0,0,1,172.31,46a19.49,19.49,0,0,1,15.42,0,18.31,18.31,0,0,1,6,4.33,20.29,20.29,0,0,1,5.32,13.84v1.18a2.9,2.9,0,0,1-.07.81H166a15.91,15.91,0,0,0,1.44,5.74,15.7,15.7,0,0,0,3.14,4.55,14.26,14.26,0,0,0,4.41,3,13.23,13.23,0,0,0,5.29,1.07A13.54,13.54,0,0,0,184,80a14.72,14.72,0,0,0,3.4-1.4,12.66,12.66,0,0,0,2.81-2.19,9.39,9.39,0,0,0,1.93-2.85l4.36,1.19A12.86,12.86,0,0,1,194,78.62a17.94,17.94,0,0,1-3.78,3,18.33,18.33,0,0,1-4.73,2A20.51,20.51,0,0,1,180.08,84.36Zm14.2-22a15.74,15.74,0,0,0-1.44-5.67,15.4,15.4,0,0,0-3.11-4.4,13.8,13.8,0,0,0-4.36-2.88,13.64,13.64,0,0,0-5.29-1,13.83,13.83,0,0,0-5.33,1,13.69,13.69,0,0,0-4.41,2.88,14.39,14.39,0,0,0-3,4.44,16.74,16.74,0,0,0-1.37,5.63Z" transform="translate(-16.98 -12.9)" fill="#464646"/>
    <path d="M204.2,64.23a21.29,21.29,0,0,1,1.4-7.7,19.34,19.34,0,0,1,4-6.32A18.66,18.66,0,0,1,215.67,46a19.45,19.45,0,0,1,7.84-1.55,18,18,0,0,1,9.55,2.48,15.91,15.91,0,0,1,6.14,6.69l-4.88,1.56a11.84,11.84,0,0,0-4.55-4.63,13.47,13.47,0,0,0-12-.48,14.07,14.07,0,0,0-4.44,3.22,14.67,14.67,0,0,0-3,4.85,17.76,17.76,0,0,0,0,12.28,15.73,15.73,0,0,0,3,5,14.52,14.52,0,0,0,4.48,3.33,12.47,12.47,0,0,0,5.43,1.22A13.12,13.12,0,0,0,227,79.4,14,14,0,0,0,230.39,78a12.14,12.14,0,0,0,2.67-2.11,6.77,6.77,0,0,0,1.55-2.52l5,1.48a12.51,12.51,0,0,1-2.37,3.81,16.28,16.28,0,0,1-3.66,3,17.85,17.85,0,0,1-4.66,2,19.8,19.8,0,0,1-5.29.71,18.74,18.74,0,0,1-13.92-6,20.31,20.31,0,0,1-4-6.4A20.88,20.88,0,0,1,204.2,64.23Z" transform="translate(-16.98 -12.9)" fill="#464646"/>
    <path d="M263.55,84.36a18.29,18.29,0,0,1-7.7-1.59,19,19,0,0,1-6-4.33,19.77,19.77,0,0,1-4-6.37,21.21,21.21,0,0,1,0-15.31,20.2,20.2,0,0,1,4-6.37,19.46,19.46,0,0,1,6-4.36,17.7,17.7,0,0,1,7.63-1.63A18,18,0,0,1,271.21,46a19.25,19.25,0,0,1,6.06,4.36,20.05,20.05,0,0,1,4,6.37,20.61,20.61,0,0,1,1.44,7.69,21,21,0,0,1-1.4,7.62,19.77,19.77,0,0,1-4,6.37,18.9,18.9,0,0,1-6.07,4.33A18.53,18.53,0,0,1,263.55,84.36Zm-14-19.83a16.09,16.09,0,0,0,1.11,6,16.37,16.37,0,0,0,3,4.88,13.4,13.4,0,0,0,4.44,3.29,12.74,12.74,0,0,0,5.44,1.19A12.55,12.55,0,0,0,269,78.7a14.6,14.6,0,0,0,4.47-3.33,16,16,0,0,0,3-4.92,17,17,0,0,0,0-12.1,15.76,15.76,0,0,0-3-5A14.28,14.28,0,0,0,269,50.06a12.4,12.4,0,0,0-5.44-1.22,12.15,12.15,0,0,0-5.41,1.22,14.45,14.45,0,0,0-4.44,3.37,16.23,16.23,0,0,0-3,5A16.7,16.7,0,0,0,249.56,64.53Z" transform="translate(-16.98 -12.9)" fill="#464646"/>
  </g>
</svg>
