<svg id="Layer_1" data-name="Layer 1" xmlns="http://www.w3.org/2000/svg" viewBox="0 0 1215.8 761.3"><defs><style>.cls-1{fill:#e3eff4;}</style></defs><title>background-line-blue-half</title><path class="cls-1" d="M1219.8,767c-30.5-14.8-60.5-30.5-90.3-46.6-34.2-18.6-68-38-100.3-59.6-22.8-20.8-43.7-43.4-63.6-67.1-12.5-17.1-24.9-34.3-37.5-51.3Q883,481.5,835.7,422.1c-12.3-15.3-24.9-30.2-38.2-44.6a706.3,706.3,0,0,0-81.4-75.2c-53.7-42.5-106.9-85.7-165.9-120.5A904.2,904.2,0,0,0,451,131.6C387.6,104.2,324.5,76,258.5,55.8A1124.5,1124.5,0,0,0,139.1,26.3c-21.5-4.1-43-7.6-64.6-10.7L4,5.7V766.2l3.2.8Z" transform="translate(-4 -5.7)"/></svg>