<svg id="Layer_1" data-name="Layer 1" xmlns="http://www.w3.org/2000/svg" viewBox="0 0 124.6 166.4"><defs><style>.cls-1{fill:#1d1e1e;}.cls-2{fill:#1c1e1f;}.cls-3{fill:#212121;}.cls-4{fill:#1f2122;}.cls-5{fill:#090a0c;}.cls-6{fill:#383c3d;}.cls-7{fill:#9dd0ea;}.cls-8{fill:#95c7db;}.cls-9{fill:#1e2021;}.cls-10{fill:#3a4647;}.cls-11{fill:#455252;}.cls-12{fill:#f4f4f4;}.cls-13{fill:#ededed;}.cls-14{fill:#262a2a;}.cls-15{fill:#d6d6d6;}.cls-16{fill:#ddd;}.cls-17{fill:#2e3738;}.cls-18{fill:#4f5f61;}.cls-19{fill:#4a5659;}.cls-20{fill:#2f302f;}.cls-21{fill:#4b4b4b;}.cls-22{fill:#545454;}</style></defs><title>bottle</title><path class="cls-1" d="M24.4,146.3c.7,5.8,3.7,10.6,7.1,15.2,5,6.5,11.6,11.1,18.9,14.6a60.8,60.8,0,0,0,25.7,6.6,39.5,39.5,0,0,0,7.7-.9,5.1,5.1,0,0,0,3.9-2.6c5.2-8.7,10.6-17.2,15.6-25.9a133.2,133.2,0,0,0,6.1-12.6,17.8,17.8,0,0,0-.1-14.3c-.4-.9-.7-1.8-1.1-3,3.8-5.4,7.5-10.9,11.4-16.4a9,9,0,0,1,5.4-3.5c5.1-1.3,8.3-4.8,10.8-9.2.2-.8-.1-1.8,1.2-1.9l.6-1c-.4-1-.3-1.6.9-1.5l.6-1.1c-.6-.7-.3-1,.5-1l1.2-2.2c.3-.7,0-1.8,1.3-1.9l.5-1c-.4-1-.2-1.6,1-1.5l.5-1.1c-.6-.8-.1-1,.7-1l1.3-2.8,1.6-3.5.8-2.7.2-2.2V64.7c-.9-.4-.6-1.1-.3-1.7l-.2-2.1c-1.3-.5-.6-1.3-.4-2.1l-1.8-8.2L144.6,49l-.8.4L146,61.5l.3,1.6v2.1c.7.3,1.3.7.2,1.2v1.2c1,.9.6,1.6-.2,2.3l-.4,1.3c0,1.4.3,3-1.6,3.6l-.9,2.2c.6.9.1,1-.7.9l-4.3,7.8c.5,1,.3,1.6-1,1.4L134.1,93,133,94.3c-2.4,3.1-5.1,5.9-9.1,7l-1.6.5a7.3,7.3,0,0,0-4.6,3.7c-.5,1.1-.8,2.4-2.3,2.7l-3.2,5.2-1.1,1.3-2.3,3.8-1.2,2.4c-1.1,1.8-.9,3.7-.4,5.7s.8,4.7,1.2,7v1.7l-2,6.5-.9,2-9.9,17.8-7,12.5c.6.8.1,1-.6,1l-.7,1a3.1,3.1,0,0,1-2.3,2.6L80.1,180c-1.1,1.3-2.4.8-3.6.4H74.1l-3-.4c-.7,1-1.3.8-1.8-.2l-4.5-1c-.3.2-.7.5-1,.4l-7.6-2.3c-.4-.1-.5-.7-.7-1.1l-3.3-1.2c-1,.5-1.5.4-1.5-.9l-2.8-1.2-1.4-1-.7-.3c-1.5-.2-2.8-.7-3.3-2.4l-2.6-1.8-1.3-1.2-7.4-8.6c-1.2-.2-1.6-.9-1.3-2.1l-1.1-2.2c-.9-.2-1.1-.8-.7-1.5s-.6-4-2.5-5.2Z" transform="translate(-24 -16.3)"/><path class="cls-2" d="M64.8,91.6l-1.1,2.1c.4.9.2,1.4-.8,1.5L61.7,97c-5.2.8-10.4,1.8-13.9,6.5l-1.2,1.2L45,106.9l-1,1.2-.6,1.1c.5.9-.1,1-.8.9l-2.2,3.7-.9,1.4-.7,1c.5.8.1,1-.6,1-.9,1.6-1.8,3.2-2.6,4.8l-1,1.3-.5,1.2c-.1.8.2,1.9-1.2,1.9l-.5,1.1c.4.9.3,1.5-.9,1.5l-1.4,2.7-.8,1.4-.5,1.2c-.2.8.1,1.8-1.2,1.9l-.8,1.7c.6,1.5-.5,2.2-1.5,3l-.2.6,1.4.4h.6l1.2-2.3c.9-1.8,1.9-3.6,2.9-5.4s-.2-1.4.9-1.4l2.7-5.4.9-1.4.5-1.2,1-1.3,2.7-4.8.9-1.4.3-.7.9-1.3,3.6-5.7c.4-1.2.8-2.4,2.3-2.7,3-3.8,6.6-6.7,11.4-7.4s5.5-3,6.9-6l1.2-1.8.7-1.6.6-1c1.6-3.5,3.2-6.9,4.7-10.4a9.1,9.1,0,0,0,.2-6.5c-1.3-4.1-.4-8,1.6-11.6s5.5-9.9,8.1-14.9c3.6-6.8,8.8-11.6,16.5-13.6A95.8,95.8,0,0,0,110,28.4l-.9-1.1-.6-.2a66.8,66.8,0,0,0-17.6,6.1,13.2,13.2,0,0,0-5.3,4.6c-3.9,6.1-7.7,12.4-11.2,18.7a43.7,43.7,0,0,0-3.6,9.3,9.6,9.6,0,0,0-.1,5.3c1.3,4,.3,7.6-1.4,11.1s-2.3,5-3.5,7.5Z" transform="translate(-24 -16.3)"/><path class="cls-3" d="M108.5,27.1l.6.2.9,1.2a.7.7,0,0,0,.6-.2l2-1L112,31l1.1,2.4c1,.5,2.1.9,1.8,2.4l1.1,1a2.3,2.3,0,0,1,2.2,2.1l3.7,2.2,1.9,1.1,2.2,1L136.3,46l.7.3h3.2V44.8l-3.8-.4-10-3.1-1.1-.5a28,28,0,0,1-3-1.5,24.6,24.6,0,0,1-7.4-6.6c-.9-1.4-1.6-2.9-.5-4.6l5.3-7.7,1-1.7c6.9.4,13.1,2.1,18.4,6.4l1.1.8,1.5.7.6-1.1,1.7,1.2.3-.2a21.2,21.2,0,0,0-9.4-6.8,80.3,80.3,0,0,0-10.9-3.2c-3.1-.7-5.6.6-7.2,3.4l-3.5,5.5Z" transform="translate(-24 -16.3)"/><path class="cls-1" d="M145.1,47.7c-.2-2-1.3-3.9-.3-5.9s-.3-2,1.2-2l.7-1.6c-.6-.7-.4-1,.4-1.1l.9-1.6.4-2.6v-.2h-1.8l-.9,2.8c.7.9.3,1.1-.6,1L141,44.2l1.1,1.3,1.7,3.9.8-.4Z" transform="translate(-24 -16.3)"/><path class="cls-3" d="M146.9,29.8l-2.5-3.3-.3.2-.9,1.4.9.9c1.3-1.1,1.7.6,2.6.9Z" transform="translate(-24 -16.3)"/><path class="cls-4" d="M24.7,142.6a3.5,3.5,0,0,0-.3,3.7l1.2-.2h-.7l1.1-.5-.2-1.4H25Z" transform="translate(-24 -16.3)"/><path class="cls-3" d="M146.6,32.7h1.8l-1.5-2.9h-.2l-.5,2Z" transform="translate(-24 -16.3)"/><path class="cls-3" d="M147.7,72.8l-1.6,3.5Z" transform="translate(-24 -16.3)"/><path class="cls-5" d="M24.7,142.6l.3,1.6h.8l.7-2.2-1.4-.4Z" transform="translate(-24 -16.3)"/><path class="cls-4" d="M25.3,140.9c1-.8,2.1-1.5,1.5-3Z" transform="translate(-24 -16.3)"/><path class="cls-3" d="M148.4,32.9l-.4,2.6Z" transform="translate(-24 -16.3)"/><path class="cls-3" d="M146,39.8c-1.5,0-1.4,1-1.2,2Z" transform="translate(-24 -16.3)"/><path class="cls-3" d="M145.1,47.7l-.5,1.3,1.3,1.6Z" transform="translate(-24 -16.3)"/><path class="cls-3" d="M137,92.4c-1.3.1-1,1.1-1.2,1.9Z" transform="translate(-24 -16.3)"/><path class="cls-3" d="M138.5,89.9c-1.2-.1-1.3.5-.9,1.5Z" transform="translate(-24 -16.3)"/><path class="cls-4" d="M31.5,129c1.2,0,1.3-.6.9-1.5Z" transform="translate(-24 -16.3)"/><path class="cls-3" d="M148.7,67.9l-.2,2.2Z" transform="translate(-24 -16.3)"/><path class="cls-3" d="M143.6,81.2c-1.2-.1-1.4.5-1,1.5Z" transform="translate(-24 -16.3)"/><path class="cls-3" d="M142.1,83.7c-1.3.1-1,1.2-1.3,1.9Z" transform="translate(-24 -16.3)"/><path class="cls-6" d="M64.8,91.6l1-1.9Z" transform="translate(-24 -16.3)"/><path class="cls-6" d="M62.9,95.2c1-.1,1.2-.6.8-1.5Z" transform="translate(-24 -16.3)"/><path class="cls-4" d="M32.9,126.4c1.4,0,1.1-1.1,1.2-1.9Z" transform="translate(-24 -16.3)"/><path class="cls-4" d="M27.6,136.2c1.3-.1,1-1.1,1.2-1.9Z" transform="translate(-24 -16.3)"/><path class="cls-3" d="M147.7,58.8c-.2.8-.9,1.6.4,2.1Z" transform="translate(-24 -16.3)"/><path class="cls-3" d="M147.1,37.1c-.8.1-1,.4-.4,1.1Z" transform="translate(-24 -16.3)"/><path class="cls-4" d="M39.5,115.2l.9-1.4Z" transform="translate(-24 -16.3)"/><path class="cls-4" d="M34.6,123.3l1-1.3Z" transform="translate(-24 -16.3)"/><path class="cls-4" d="M46.6,104.7l1.2-1.2Z" transform="translate(-24 -16.3)"/><path class="cls-4" d="M29.3,133.1l.8-1.4Z" transform="translate(-24 -16.3)"/><path class="cls-4" d="M38.2,117.2c.7,0,1.1-.2.6-1Z" transform="translate(-24 -16.3)"/><path class="cls-4" d="M44,108.1l1-1.2Z" transform="translate(-24 -16.3)"/><path class="cls-3" d="M139.6,87.8c-.8,0-1.1.3-.5,1Z" transform="translate(-24 -16.3)"/><path class="cls-3" d="M144.8,79.1c-.8,0-1.3.2-.7,1Z" transform="translate(-24 -16.3)"/><path class="cls-4" d="M42.6,110.1c.7.1,1.3,0,.8-.9Z" transform="translate(-24 -16.3)"/><path class="cls-3" d="M148.3,63c-.3.6-.6,1.3.3,1.7Z" transform="translate(-24 -16.3)"/><path class="cls-7" d="M27.1,141.9c.3,1.8,1.7.7,2.6,1h.8l.4-.2h6.6l2.3.2,2.7.6a15.3,15.3,0,0,1,3,.3l7.6,2.3h0l.6.2a3.1,3.1,0,0,0,1,.5h0l.5.5,2.1.8a51.3,51.3,0,0,1,15.1,9.7c5.3,3.7,9,8.7,12.4,14,.3.6,0,1.6,0,2.4l2.5,2a3.6,3.6,0,0,1,.7-1l.6-1,7-12.5,9.9-17.8.9-2c.7-2.2,1.3-4.4,2-6.5v-1.7c-.4-2.3-.6-4.7-1.2-7s-.7-3.9.4-5.7l1.2-2.4c.8-1.3,1.6-2.5,2.3-3.8l1.1-1.3,3.2-5.2,2.3-2.7a7.3,7.3,0,0,1,4.6-3.7l1.6-.5c4-1.1,6.7-3.9,9.1-7l1.1-1.3,3.3-5.9,1-1.4,4.3-7.8.7-.9.9-2.2,1.6-3.6.4-1.3.2-2.3V66.4c-.1-.4-.1-.8-.2-1.2s-.1-1.4-.1-2.1l-.3-1.6c-.8-4.1-1.5-8.1-2.2-12.1-.6-1.3-1.2-2.6-1.7-3.9l-1.9.7H137l-.7-.3c-3.8.3-7.1-1-10.3-2.8l-2.2-1-1.9-1.1-3.7-2.2L116,36.8l-1.1-1-1.8-2.4L112,31c-.2-.8-.4-1.5-.6-2.4l-.8-.3a.7.7,0,0,1-.6.2h0a95.8,95.8,0,0,1-10.2,3.7c-7.7,2-12.9,6.8-16.5,13.6-2.6,5-5.5,9.9-8.1,14.9s-2.9,7.5-1.6,11.6a9.1,9.1,0,0,1-.2,6.5c-1.5,3.5-3.1,6.9-4.7,10.4l-.6,1-.7,1.6-1.2,1.8c-1.4,3-3.2,5.4-6.9,6s-8.4,3.6-11.4,7.4l-2.3,2.7L42,115.3l-.9,1.3-.3.7-.9,1.4-2.7,4.8-1,1.3a6.1,6.1,0,0,1-.5,1.2l-.9,1.4-2.7,5.4-.9,1.4c-1,1.8-2,3.6-2.9,5.4ZM81.3,85.6l-1.1.5-1.5-1.6c-1.2-1-2.4-1.9-2.3-4.1,1.8.9,2.5,2.3,3.4,3.5Zm-6.6,24.6.4-.2,1,.8,4.3,3,4,2.4a61.8,61.8,0,0,0,18.2,6,6.7,6.7,0,0,1,1.8.7l-.2.8c-7.3-.2-13.8-2.9-20.1-6.4L78.8,114l-3.6-2.6Zm6.8-22.9-.2-.8.9.2,2.2,1.8c2.7,1.9,5.3,3.9,7.9,5.9l2.4,1.4,1.3.8,6.7,3,9.4,2.8,2.6.8a3.1,3.1,0,0,0-.2.8l-2.9-.3-9.2-2.9-2.1-.8-1.1-.5-7.3-4A20.6,20.6,0,0,1,84,89.4ZM71.2,108l-1-1-3.1-3.6c-.8-.8-1.8-1.5-1.2-3.6l1.8,2.4,3.1,3.6,1.5,1.6,2,1.8v.7l-.9-.2Z" transform="translate(-24 -16.3)"/><path class="cls-8" d="M30.9,142.6l-.4.2v.6l-.7-.5c-.9-.3-2.3.8-2.6-1h-.6l-.7,2.2.2,1.4-1.1.5h.7c1.9,1.2,1.6,3.4,2.5,5.2l.7,1.5,1.1,2.2a23.9,23.9,0,0,0,1.3,2.1l7.4,8.6,1.3,1.2,2.6,1.8,3.3,2.4.7.3,1.4,1,2.8,1.2,1.5.9,3.3,1.2,9.3,3,4.5,1,1.8.2,3,.4h2.4l3.6-.4,4.9-1.3a3.1,3.1,0,0,0,2.3-2.6l-2.5-2a4.5,4.5,0,0,1-1.3-1.1,66.4,66.4,0,0,0-11.6-13.8l-9.3-6.6c-1.8-1.2-3.8-2.2-5.7-3.3l-2.3-.9-3.1-1.2L46,145.5l-4-.9-2.2-.5-8.1-.4C31.4,143.7,31.2,143,30.9,142.6Z" transform="translate(-24 -16.3)"/><path class="cls-4" d="M64.8,178.7l-9.3-3c.2.4.3,1,.7,1.1l7.6,2.3C64.1,179.2,64.5,178.9,64.8,178.7Z" transform="translate(-24 -16.3)"/><path class="cls-9" d="M145.9,71.2l-1.6,3.6C146.2,74.2,145.9,72.6,145.9,71.2Z" transform="translate(-24 -16.3)"/><path class="cls-4" d="M45.8,171.1l-3.3-2.4C43,170.4,44.3,170.9,45.8,171.1Z" transform="translate(-24 -16.3)"/><path class="cls-9" d="M117.7,105.5l-2.3,2.7C116.9,107.9,117.2,106.6,117.7,105.5Z" transform="translate(-24 -16.3)"/><path class="cls-4" d="M80.1,180l-3.6.4C77.7,180.8,79,181.3,80.1,180Z" transform="translate(-24 -16.3)"/><path class="cls-9" d="M146.5,67.6l-.2,2.3C147.1,69.2,147.5,68.5,146.5,67.6Z" transform="translate(-24 -16.3)"/><path class="cls-10" d="M108.8,118.5l-1.2,2.4Z" transform="translate(-24 -16.3)"/><path class="cls-4" d="M31.2,157.1a23.9,23.9,0,0,1-1.3-2.1C29.6,156.2,30,156.9,31.2,157.1Z" transform="translate(-24 -16.3)"/><path class="cls-4" d="M71.1,179.9l-1.8-.2C69.8,180.7,70.4,180.9,71.1,179.9Z" transform="translate(-24 -16.3)"/><path class="cls-4" d="M52.2,174.5l-1.5-.9C50.7,174.9,51.2,175,52.2,174.5Z" transform="translate(-24 -16.3)"/><path class="cls-9" d="M138.4,85.7l-1,1.4C138.7,87.3,138.9,86.7,138.4,85.7Z" transform="translate(-24 -16.3)"/><path class="cls-11" d="M106.4,141.8l-.9,2Z" transform="translate(-24 -16.3)"/><path class="cls-9" d="M123.9,101.3l-1.6.5Z" transform="translate(-24 -16.3)"/><path class="cls-9" d="M112.2,113.4l-1.1,1.3Z" transform="translate(-24 -16.3)"/><path class="cls-9" d="M134.1,93,133,94.3Z" transform="translate(-24 -16.3)"/><path class="cls-9" d="M143.4,77l-.7.9C143.5,78,144,77.9,143.4,77Z" transform="translate(-24 -16.3)"/><path class="cls-9" d="M146.4,65.2l.2,1.2C147.7,65.9,147.1,65.5,146.4,65.2Z" transform="translate(-24 -16.3)"/><path class="cls-11" d="M108.4,133.6v0Z" transform="translate(-24 -16.3)"/><path class="cls-4" d="M88.6,174.1l-.6,1C88.7,175.1,89.2,174.9,88.6,174.1Z" transform="translate(-24 -16.3)"/><path class="cls-4" d="M39.9,166.9l-1.3-1.2Z" transform="translate(-24 -16.3)"/><path class="cls-9" d="M146,61.5l.3,1.6Z" transform="translate(-24 -16.3)"/><path class="cls-4" d="M28.8,152.8l-.7-1.5C27.7,152,27.9,152.6,28.8,152.8Z" transform="translate(-24 -16.3)"/><path class="cls-4" d="M75.8,180.3h0Z" transform="translate(-24 -16.3)"/><path class="cls-4" d="M47.9,172.4l-1.4-1Z" transform="translate(-24 -16.3)"/><path class="cls-4" d="M45.6,109.6l2.3-2.7C46.4,107.2,46,108.4,45.6,109.6Z" transform="translate(-24 -16.3)"/><path class="cls-6" d="M66.2,93.5l1.2-1.8Z" transform="translate(-24 -16.3)"/><path class="cls-4" d="M31.2,134.2l.9-1.4C31,132.8,30.9,133.4,31.2,134.2Z" transform="translate(-24 -16.3)"/><path class="cls-4" d="M39.9,118.7l.9-1.4Z" transform="translate(-24 -16.3)"/><path class="cls-4" d="M41.1,116.6l.9-1.3Z" transform="translate(-24 -16.3)"/><path class="cls-4" d="M36.2,124.8l1-1.3Z" transform="translate(-24 -16.3)"/><path class="cls-4" d="M34.8,127.4l.9-1.4Z" transform="translate(-24 -16.3)"/><path class="cls-6" d="M68.1,90.1l.6-1Z" transform="translate(-24 -16.3)"/><path class="cls-6" d="M110,28.4h0l-.9-1.2Z" transform="translate(-24 -16.3)"/><path class="cls-12" d="M120.9,21.9a21.6,21.6,0,0,0,2.7,3.8,38.2,38.2,0,0,0,14.1,7.4c1,.4,2,.6,3,.9l.2,1.3-1.7,3.6-1.4,2c-.4.4-1.1.8-1.3,1.3a8.1,8.1,0,0,0,0,2.2l-10-3.1c0-.8-.3-1.2-1.1-.5a28,28,0,0,1-3-1.5,24.6,24.6,0,0,1-7.4-6.6c-.9-1.4-1.6-2.9-.5-4.6l5.3-7.7Zm3.8,16.2c2-.8,3.8-4,3.8-7C126.8,33.1,125.2,35.2,124.7,38.1Zm8.2-4.7c-1.8.7-4.1,4.3-4.3,7.2C131,38.9,131.5,36,132.9,33.4Zm3.8,1.3a13,13,0,0,0-3.8,7.1C135.2,40,136,37.4,136.7,34.7ZM121,26.1c-2.1,1.3-2.9,3.4-3.3,5.7A9.3,9.3,0,0,0,121,26.1Zm3.5,3.1a9.6,9.6,0,0,0-3.2,6.1A10.7,10.7,0,0,0,124.5,29.2Z" transform="translate(-24 -16.3)"/><path class="cls-13" d="M137.8,40.9c-.4.4-1.1.8-1.3,1.3a8.1,8.1,0,0,0,0,2.2l3.8.4.7-.6,4.1-7.7.6-1,.9-2.8-.4-.8L144.1,29l-.9-.9-1.4-1.5-1.5-.7-.6.9-.5-.6V25.1c-5.3-4.3-11.5-6-18.4-6.4l-1,1.7,1.1,1.5c1.3.8,2.6,1.4,3.8,2.2l5.2,3.7,1.1-.6v1.3A33,33,0,0,0,144,33c-.2.5-.2.7-.3.7l-3,.3.2,1.3,1.6.2-2.3,3.8a8,8,0,0,1-2.8,3.7Z" transform="translate(-24 -16.3)"/><path class="cls-14" d="M126,43.2c3.2,1.8,6.5,3.1,10.3,2.8Z" transform="translate(-24 -16.3)"/><path class="cls-5" d="M141.8,26.6l1.4,1.5.9-1.4-1.7-1.2Z" transform="translate(-24 -16.3)"/><path class="cls-6" d="M110.6,28.3l.8.3L112,31l.6-3.7Z" transform="translate(-24 -16.3)"/><path class="cls-14" d="M116,36.8l2.2,2.1A2.3,2.3,0,0,0,116,36.8Z" transform="translate(-24 -16.3)"/><path class="cls-14" d="M141,44.2l-.7.6v1.4l1.9-.7Z" transform="translate(-24 -16.3)"/><path class="cls-14" d="M113.1,33.4l1.8,2.4C115.2,34.3,114.1,33.9,113.1,33.4Z" transform="translate(-24 -16.3)"/><path class="cls-14" d="M137,46.3h0Z" transform="translate(-24 -16.3)"/><path class="cls-14" d="M121.9,41.1l1.9,1.1Z" transform="translate(-24 -16.3)"/><path class="cls-15" d="M139.2,25.1v1.1l.5.6.6-.9Z" transform="translate(-24 -16.3)"/><path class="cls-16" d="M126.5,41.3c0-.8-.3-1.2-1.1-.5Z" transform="translate(-24 -16.3)"/><path class="cls-3" d="M145.7,35.5l-.6,1C146,36.6,146.4,36.4,145.7,35.5Z" transform="translate(-24 -16.3)"/><path class="cls-5" d="M144.1,29l2.1,2.9.5-2C145.8,29.6,145.4,27.9,144.1,29Z" transform="translate(-24 -16.3)"/><path class="cls-1" d="M24.9,146l1.1-.5Z" transform="translate(-24 -16.3)"/><path class="cls-17" d="M71.9,159.2A66.4,66.4,0,0,1,83.5,173a4.5,4.5,0,0,0,1.3,1.1c0-.8.3-1.8,0-2.4-3.4-5.3-7.1-10.3-12.4-14Z" transform="translate(-24 -16.3)"/><path class="cls-9" d="M71.9,159.2l.5-1.5A51.3,51.3,0,0,0,57.3,148l-.4,1.3c1.9,1.1,3.9,2.1,5.7,3.3Z" transform="translate(-24 -16.3)"/><path class="cls-17" d="M84.1,117.3c6.3,3.5,12.8,6.2,20.1,6.4l.2-.8a6.7,6.7,0,0,0-1.8-.7,61.8,61.8,0,0,1-18.2-6Z" transform="translate(-24 -16.3)"/><path class="cls-14" d="M51.5,147.2l3.1,1.2.6-1.2-.5-.5-1.6-.8-7.6-2.3a15.3,15.3,0,0,0-3-.3l-.5,1.3,4,.9A6.2,6.2,0,0,1,51.5,147.2Z" transform="translate(-24 -16.3)"/><path class="cls-2" d="M102.4,100.8l9.2,2.9.5-1.3-9.4-2.8Z" transform="translate(-24 -16.3)"/><path class="cls-10" d="M84,89.4a20.6,20.6,0,0,0,7.9,6.1l.4-1.1c-2.6-2-5.2-4-7.9-5.9Z" transform="translate(-24 -16.3)"/><path class="cls-4" d="M92.3,94.4l-.4,1.1,7.3,4c.7-.6.9-.1,1.1.5l2.1.8.3-1.2-6.7-3-1.3-.8Z" transform="translate(-24 -16.3)"/><path class="cls-14" d="M30.9,142.6c.3.4.5,1.1.8,1.1l8.1.4V143l-2.4-.5Z" transform="translate(-24 -16.3)"/><path class="cls-10" d="M84.1,117.3l.3-1.1-4-2.4-1.6.2Z" transform="translate(-24 -16.3)"/><path class="cls-18" d="M79.8,83.9c-.9-1.2-1.6-2.6-3.4-3.5-.1,2.2,1.1,3.1,2.3,4.1Z" transform="translate(-24 -16.3)"/><path class="cls-17" d="M78.8,114l1.6-.2-4.3-3-.9.6Z" transform="translate(-24 -16.3)"/><path class="cls-10" d="M70.8,105.8l-3.1-3.6-.6,1.2,3.1,3.6Z" transform="translate(-24 -16.3)"/><path class="cls-11" d="M112.1,102.4l-.5,1.3,2.9.3.2-.8Z" transform="translate(-24 -16.3)"/><path class="cls-5" d="M39.9,143v1.1l2.2.5.5-1.3-2.7-.6Z" transform="translate(-24 -16.3)"/><path class="cls-5" d="M55.2,147.2l-.6,1.2,2.3.9.4-1.3Z" transform="translate(-24 -16.3)"/><path class="cls-19" d="M67.1,103.4l.6-1.2-1.8-2.4C65.3,101.9,66.3,102.6,67.1,103.4Z" transform="translate(-24 -16.3)"/><path class="cls-17" d="M84,89.4l.4-.9-2.2-1.8-.7.6Z" transform="translate(-24 -16.3)"/><path class="cls-19" d="M79.8,83.9l-1.1.6,1.5,1.6,1.1-.5Z" transform="translate(-24 -16.3)"/><path class="cls-18" d="M70.8,105.8l-.6,1.2,1,1,1.1-.6Z" transform="translate(-24 -16.3)"/><path class="cls-17" d="M72.3,107.4l-1.1.6,2.3,1.7.8-.5Z" transform="translate(-24 -16.3)"/><path class="cls-11" d="M39.9,143v-.3l-2.3-.2Z" transform="translate(-24 -16.3)"/><path class="cls-18" d="M94.7,95.8l1.3.8Z" transform="translate(-24 -16.3)"/><path class="cls-11" d="M100.3,100c-.2-.6-.4-1.1-1.1-.5Z" transform="translate(-24 -16.3)"/><path class="cls-17" d="M76.1,110.8l-1-.8-.4.2.5,1.2Z" transform="translate(-24 -16.3)"/><path class="cls-17" d="M73.5,109.7l.9.2v-.7Z" transform="translate(-24 -16.3)"/><path class="cls-17" d="M81.3,85.6l-1.1.5Z" transform="translate(-24 -16.3)"/><path class="cls-17" d="M82.2,86.7l-.9-.2.2.8Z" transform="translate(-24 -16.3)"/><path class="cls-18" d="M29.7,142.9l.7.5v-.6Z" transform="translate(-24 -16.3)"/><path class="cls-11" d="M51.5,147.2a6.2,6.2,0,0,0-5.5-1.7Z" transform="translate(-24 -16.3)"/><path class="cls-20" d="M140.7,34l3-.3c.1,0,.1-.2.3-.7a33,33,0,0,1-13-4.5l-1.1-.7-5.2-3.7c-1.2-.8-2.5-1.4-3.8-2.2a21.6,21.6,0,0,0,2.7,3.8,38.2,38.2,0,0,0,14.1,7.4C138.7,33.5,139.7,33.7,140.7,34Z" transform="translate(-24 -16.3)"/><path class="cls-21" d="M128.5,31.1c-1.7,2-3.3,4.1-3.8,7C126.7,37.3,128.5,34.1,128.5,31.1Z" transform="translate(-24 -16.3)"/><path class="cls-21" d="M128.6,40.6c2.4-1.7,2.9-4.6,4.3-7.2C131.1,34.1,128.8,37.7,128.6,40.6Z" transform="translate(-24 -16.3)"/><path class="cls-21" d="M132.9,41.8c2.3-1.8,3.1-4.4,3.8-7.1A13,13,0,0,0,132.9,41.8Z" transform="translate(-24 -16.3)"/><path class="cls-20" d="M117.7,31.8a9.3,9.3,0,0,0,3.3-5.7C118.9,27.4,118.1,29.5,117.7,31.8Z" transform="translate(-24 -16.3)"/><path class="cls-6" d="M121.3,35.3a10.7,10.7,0,0,0,3.2-6.1A9.6,9.6,0,0,0,121.3,35.3Z" transform="translate(-24 -16.3)"/><path class="cls-22" d="M140.2,39.3l2.3-3.8-1.6-.2-1.7,3.6Z" transform="translate(-24 -16.3)"/><path class="cls-2" d="M140.2,39.3l-1-.4-1.4,2-.4,2.1A8,8,0,0,0,140.2,39.3Z" transform="translate(-24 -16.3)"/><path class="cls-15" d="M129.9,27.8l1.1.7V27.2Z" transform="translate(-24 -16.3)"/></svg>