<svg id="Layer_1" data-name="Layer 1" xmlns="http://www.w3.org/2000/svg" viewBox="0 0 67.1 106.4"><defs><style>.cls-1{fill:#dae2e5;}.cls-2{fill:#c8d1d5;}.cls-3{fill:#123b57;}.cls-4{fill:#b2bcc4;}.cls-5{fill:#b6bfc6;}.cls-6{fill:#e8edf0;}.cls-7{fill:#b7bfc6;}.cls-8{fill:#3a4754;}.cls-9{fill:#908c88;}.cls-10{fill:#34404d;}.cls-11{fill:#9facb2;}.cls-12{fill:#374451;}.cls-13{fill:#9f9f9b;}.cls-14{fill:#1a1921;}.cls-15{fill:#a0acb2;}.cls-16{fill:#dbe3e6;}.cls-17{fill:#34424f;}.cls-18{fill:#333f4c;}.cls-19{fill:#6e7781;}.cls-20{fill:#818a92;}.cls-21{fill:#3f4b58;}.cls-22{fill:#bbc3c9;}.cls-23{fill:#d7dfe3;}.cls-24{fill:#606973;}.cls-25{fill:#c4c3c1;}.cls-26{fill:#929fa6;}.cls-27{fill:#313d4a;}.cls-28{fill:#fefefe;}</style></defs><title>microscope</title><path class="cls-1" d="M99.2,144a23,23,0,0,1-8.2-2,27.9,27.9,0,0,1-4.5-2.4h-.2c-.5-.4-.8-.7-.4-1.4a23.2,23.2,0,0,0,1.6-3.6h.2c.3.1.5.3.8.2l5.4-.7.9-.4a14.5,14.5,0,0,0,1.8,1.7,6.8,6.8,0,0,0,6.2.6,18,18,0,0,0,6.4-4.1,34.4,34.4,0,0,0,7.3-10.3,40.3,40.3,0,0,0,2.9-9.1,20.3,20.3,0,0,0-.4-9.8,8.3,8.3,0,0,0-3.4-4.6l-.5-.4,1.6-.8a6.7,6.7,0,0,0,3.5-5.2l.7.4a22.6,22.6,0,0,1,5.6,7.1,34.9,34.9,0,0,1,2.2,5.3,34.5,34.5,0,0,1,1,5.6,23.6,23.6,0,0,1,.2,3.8,24.7,24.7,0,0,1-1,6.7,54.8,54.8,0,0,1-2.2,6.1,44.5,44.5,0,0,1-3.3,5.5,36,36,0,0,1-3.7,4.1,20.2,20.2,0,0,1-6,4.4l-3.3,1.6-.5.4-.2-.2a9.8,9.8,0,0,0-2.9-4.6,4.1,4.1,0,0,0-3.5-1,3.9,3.9,0,0,0-3.4,3.1A28.3,28.3,0,0,0,99.2,144Z" transform="translate(-62.8 -51.4)"/><path class="cls-2" d="M101.4,101c-.2.3-.5.5-.6.8a9.1,9.1,0,0,0-.9,1.7c-.2-.2-.3-.5-.5-.6l-3.5-1.6c-.5-.2-1-.5-1.3.3s-.2.3-.4.4l-.8-.4-1.5-.7-.5-.2c-.2-.2-.3-.3-.4.1h-.1c-.1-.1-.1-.4-.3-.5s-.7-.8-.4-1.6l4.2,1.9c.4.2.6.2.8-.2l.9-1.9-4.9-2.2-.9-.5c-.7-.2-.9-.6-1-1.3s1,.1,1.4.4l2.7,1.2c.1,0,.1.1.1.2l2.7,1.1.5-.2,1.1-2.3c1-2.2,2-4.4,3.1-6.5l3.3-7.1,3.3-6.9c.6-1.5,1.3-2.9,2-4.4l.4-.3,2.2,1,2.4,1h.1c-.3.9-.7,1.8-1.1,2.7s-.5,1,.6,1.5,1.1.9.7,1.9L113,81.6l-.3.9-1.1-.2a6.6,6.6,0,0,0-7,4,6.7,6.7,0,0,0,1.9,7.8,2.9,2.9,0,0,1-.2.9c-.6,1.3-1.2,2.6-1.9,3.9l-.6,1.7h0l-.3.2-2.1-1-4.3-2a.5.5,0,0,0-.8.2c-.2.4-.1.6.3.7l2.5,1.2Z" transform="translate(-62.8 -51.4)"/><path class="cls-3" d="M63.2,154.6h52.7l1.7.2v2.7H63Z" transform="translate(-62.8 -51.4)"/><path class="cls-1" d="M112.2,148.8h2.5a5.9,5.9,0,0,1,1.4.6c.7.3.6,1,.6,1.6v.8H63.9c-.1-.2,0-.5-.1-.8s.9-2.2,2.3-2.2H98.5l.4-.6c0,.2.1.4.1.6h13.2Z" transform="translate(-62.8 -51.4)"/><path class="cls-4" d="M63.9,151.9h52.8v2c0,.4.1.5.5.5s.4.1.4.4l-1.7-.2h-52Z" transform="translate(-62.8 -51.4)"/><path class="cls-5" d="M112.2,148.8H99c0-.2-.1-.4-.1-.6v-1.6c0-.2.1-.4.1-.6v-.7a6.6,6.6,0,0,1,.1-1.4,28.3,28.3,0,0,1,.7-4.2,3.9,3.9,0,0,1,3.4-3.1,4.1,4.1,0,0,1,3.5,1,9.8,9.8,0,0,1,2.9,4.6l.2.2c.3,1,.7,1.9,1,2.9S111.8,147.7,112.2,148.8Zm-6-7.9a2.1,2.1,0,0,0-2.2-2.3,2.3,2.3,0,0,0,0,4.6A2.2,2.2,0,0,0,106.2,140.9Z" transform="translate(-62.8 -51.4)"/><path class="cls-6" d="M93.4,96.1l-2.7-1.2a2.2,2.2,0,0,1,.1-.8l3-6.3c1-2.2,2.1-4.3,3.1-6.6s2.5-5.3,3.8-7.9l1.2-2.8,1.2.3c.2.6.8.6,1.3.8a.9.9,0,0,0,.5-.4l1.4-3h.7l.4.8v.2l-.4.4-.4,1.3-.2.3h0l-.3.3c0,.3-.1.6-.5.5s-.6.1-.7.4l-2.7,5.5c-.9,2-1.8,4.1-2.8,6.1l-2.7,5.7-2.5,5.5C94,95.7,93.7,95.8,93.4,96.1Z" transform="translate(-62.8 -51.4)"/><path class="cls-7" d="M85.1,132.2c-.2.1-.5.2-.6.4a1.2,1.2,0,0,1-1.3.2l-11.1-5.2a1,1,0,0,1-.7-1.2,7.8,7.8,0,0,1,1.7-3.4.9.9,0,0,1,1.2-.2l10.7,5c1.1.4,1,1.2,1.1,2l-1,1.7C85,131.7,85.1,132,85.1,132.2Z" transform="translate(-62.8 -51.4)"/><path class="cls-8" d="M106.5,94.1a6.7,6.7,0,0,1-1.9-7.8,6.6,6.6,0,0,1,7-4l1.1.2a6.9,6.9,0,0,1,4,3.5l.2.3v.6a2.4,2.4,0,0,0,.2.8v1.7a6.7,6.7,0,0,1-4.4,5.8l-.3.2h-3.9l-.5-.2h-.2l-.3-.2h-.2Zm4.3-.5a4.6,4.6,0,0,0,4.6-4.7,4.7,4.7,0,0,0-4.7-4.7,4.7,4.7,0,1,0,.1,9.4Z" transform="translate(-62.8 -51.4)"/><path class="cls-9" d="M98.5,128.8H98c-.2-.1-.4-.4-.7-.5l-12-5.5-.9-.2c-.1-.1-.3-.2-.4-.4V122l1.3-2.3a.6.6,0,0,1,.9-.3l1.3.5h.2l.3.2h.2l2,.9h.2l.3.2h.2l.7.4h.3l.8.5h.2l.7.4h.2l.9.4h.2l2.2,1.2h.2l.5.2.4.2.6.3.5.2,1,.5a.1.1,0,0,0,.1.1,8.6,8.6,0,0,0-.1,1.6l-.3.8-.7.5Z" transform="translate(-62.8 -51.4)"/><path class="cls-10" d="M93.4,101.6l.8.4h.3l3.5,1.7v.2l-.3.6-.9,1.8v.2l-.2.3v.7a4.3,4.3,0,0,1-.4.7h0l-.2.4-.2.4-.3.6-.3.6-.2.6-.3.4v.3l-.3.3-1.2-.3-.5-.2H92l-.9-.4-.3-.2-.7-.3-.7-.6,2.1-4.5C92.1,104.1,92.7,102.9,93.4,101.6Z" transform="translate(-62.8 -51.4)"/><path class="cls-11" d="M109.8,95.5h1.9c.3.2.5.3.5-.1h.5l.3-.2a6.7,6.7,0,0,0,4.4-5.8l2.6,1.7c.1.1.1.3.2.4a6.7,6.7,0,0,1-3.5,5.2l-1.6.8-1.2-.3a8,8,0,0,0-5.3.6l-3.9,2.2v-.5c.6-1.4,1.3-2.7,1.9-4.1s.5-.7,1-.5h.2l.3.2h.2l.5.2h.3C109.3,95.8,109.5,95.7,109.8,95.5Z" transform="translate(-62.8 -51.4)"/><path class="cls-12" d="M84.4,122.6l.9.2,12,5.5c.3.1.5.4.7.5l-1.3,1.9h-.6l-.7-.2-1.9-.9-.2-.2-2.7-1.2-1-.4-.3-.2-1.4-.5-.3-.2-3.2-1.5-.5-.4v-1.3Z" transform="translate(-62.8 -51.4)"/><path class="cls-13" d="M87.4,119.9l-1.3-.5a.6.6,0,0,0-.9.3L83.9,122h-.5l-.8-.5h-.2l-1.2-.6h-.3l-.3-.2h-.2l-.3-.2h-.2l-.7-.3H79l-.3-.2h-.2l-.3-.2h-.3l-.3-.2h-.2l-.7-.4h-.2l-.3-.2-.7-.3-.4-.2-.5-.2-.4-.2-.6-.3a8.9,8.9,0,0,1,1.5-3.1h.3l.6.3.6.2.3.2.7.3.4.2.6.2.2.2h.3l.3.2h.2l.3.2,3.9,1.8,3,1.3Z" transform="translate(-62.8 -51.4)"/><path class="cls-14" d="M118.2,66.1h.3v1.4a1.9,1.9,0,0,1-.2.7.1.1,0,0,1-.1.1l-.2.2a.1.1,0,0,1-.1.1h-1.3l-.6-.4-3.3-1.5-2-.8h0l-.3-.2-1.3-.7-1.2-.5-1.6-.7-.9-.6h0c-.2-.7.2-1.2.4-1.8a.9.9,0,0,1,1.2-.5l2.4,1h.1l.3.2.9.3,1.8.8c.1.1.1.2.2.2l3.4,1.6,1.8.7Z" transform="translate(-62.8 -51.4)"/><path class="cls-15" d="M90.6,128.3l2.7,1.2.2.2h-.3a23.1,23.1,0,0,0,1,2.8,3.3,3.3,0,0,0,.6,1l-.9.4-5.4.7c-.3.1-.5-.1-.8-.2s.1-.3.2-.5.3-.3,0-.4l-.6-.3L87,133h-.2l-.3-.2-1.4-.6c0-.2-.1-.5,0-.7l1-1.7L89,131a.4.4,0,0,0,.6-.3A24.4,24.4,0,0,1,90.6,128.3Z" transform="translate(-62.8 -51.4)"/><path class="cls-16" d="M101.9,70.5l-1.2,2.8c-1.3,2.6-2.5,5.3-3.8,7.9s-2.1,4.4-3.1,6.6l-3,6.3a2.2,2.2,0,0,0-.1.8c-.4-.3-.8-.7-1.4-.4S90.4,92.1,91,91l3.9-8.4L100.3,71c.1-.2.5-.4.7-.6h.9Z" transform="translate(-62.8 -51.4)"/><path class="cls-8" d="M109.4,61.9l-2.4-1a.9.9,0,0,0-1.2.5c-.2.6-.6,1.1-.4,1.8s-.1-.1-.2-.2a2,2,0,0,1,1.8-2.3.8.8,0,0,0,.6-.4c1.3-2.7,2.6-5.5,3.8-8.2.4-.8.6-.9,1.5-.6h.3l.2.2c.1,0,.1,0,.1.1s.1.4,0,.6c-1.1,2.4-2.2,4.7-3.2,7A23.4,23.4,0,0,0,109.4,61.9Z" transform="translate(-62.8 -51.4)"/><path class="cls-17" d="M112.5,63.2l-1.8-.8c0-.2,0-.3.1-.4l3.7-8.2c.2-.4.4-1,1.1-1h.2l1.3.9a3,3,0,0,0-.4,1l-1.8,3.7c-.6,1.4-1.3,2.9-2,4.3Z" transform="translate(-62.8 -51.4)"/><path class="cls-18" d="M110.7,65.9l2,.8,3.3,1.5.6.4-.9,2.2a.1.1,0,0,1-.1.1v.3l-.9.6h-.1l-.3-.3L111,69.9l-1.1-.3h-.6l-1.5-.8.3-.8.2-.2h0a.9.9,0,0,1,.3.5c0,.6.6.5.9.7h.4C110.1,67.6,111,67,110.7,65.9Z" transform="translate(-62.8 -51.4)"/><path class="cls-13" d="M68.6,115l-.4-.4v-1.1l1-1.5h1.4l.7.4h.2l.3.2.8.3.3.2.7.4c-.4.9-.8,1.8-1.3,2.7s-.3.2-.5.3h-.4l-.3-.2h-.2l-.3-.2-1.1-.4-.3-.2h-.3Z" transform="translate(-62.8 -51.4)"/><path class="cls-19" d="M115.6,52.8c-.7,0-.9.6-1.1,1L110.8,62c-.1.1-.1.2-.1.4l-.9-.3-.3-.2h-.1a23.4,23.4,0,0,1,.9-2.4c1-2.3,2.1-4.6,3.2-7,.1-.2,0-.4,0-.6Z" transform="translate(-62.8 -51.4)"/><path class="cls-4" d="M63.2,154.6l-.2,2.9h54.6c-.1.1-.2.3-.3.3H63.7c-.9,0-.9,0-.9-1V155C62.8,154.7,62.8,154.5,63.2,154.6Z" transform="translate(-62.8 -51.4)"/><path class="cls-20" d="M93.4,101.6c-.7,1.3-1.3,2.5-1.9,3.8l-2.1,4.5.7.6-2.4-1.1a16.4,16.4,0,0,0,1.4-2.2c.9-1.8,1.7-3.7,2.6-5.5.1-.2.1-.5.2-.8Z" transform="translate(-62.8 -51.4)"/><path class="cls-1" d="M91.2,96.3l4.9,2.2-.9,1.9c-.2.4-.4.4-.8.2l-4.2-1.9Z" transform="translate(-62.8 -51.4)"/><path class="cls-21" d="M91.9,100.9c-.1.3-.1.6-.2.8-.9,1.8-1.7,3.7-2.6,5.5a16.4,16.4,0,0,1-1.4,2.2l-.5-.3v-.7l.8-1.7v-.3l.3-.8.2-.3h0l.4-.2,1.9-4.2h.5Z" transform="translate(-62.8 -51.4)"/><path class="cls-22" d="M101.4,101l-2.3-1.1-2.5-1.2c-.4-.1-.5-.3-.3-.7a.5.5,0,0,1,.8-.2l4.3,2,2.1,1,.3.2c-.2.6-.6.8-1.1.6Z" transform="translate(-62.8 -51.4)"/><path class="cls-23" d="M106.7,68.2h-.4l-1.4,3a.9.9,0,0,1-.5.4c-.5-.2-1.1-.2-1.3-.8s1.1-2.5,1.7-3.7l1.4.7Z" transform="translate(-62.8 -51.4)"/><path class="cls-12" d="M106.2,67.8l-1.4-.7c0-.2-.1-.5-.1-.7s.2-.3.2-.5.1-.1.1-.2l.5-.7.8-1.2,1.6.7-.6,1.5A17.4,17.4,0,0,0,106.2,67.8Z" transform="translate(-62.8 -51.4)"/><path class="cls-5" d="M98,103.8l-3.5-1.7h-.3c.2-.1.4-.2.4-.4s.8-.5,1.3-.3l3.5,1.6c.2.1.3.4.5.6l-.6.5h-.9Z" transform="translate(-62.8 -51.4)"/><path class="cls-24" d="M117.1,53.8l-1.3-.9,3.4,1.5,2.5,1.2c.7.3.8.7.5,1.5l-3,6.4c-.3.7-.7,1.4-1,2v.6l-.3-.4c.1-.2.1-.4.2-.6l3.9-8.3a.6.6,0,0,0-.3-1l-1.8-.8Z" transform="translate(-62.8 -51.4)"/><path class="cls-25" d="M71.8,116.5c.2-.1.4-.1.5-.3s.9-1.8,1.3-2.7l1.5.7a8.9,8.9,0,0,0-1.5,3.1Z" transform="translate(-62.8 -51.4)"/><path class="cls-26" d="M107.6,94.9c-.5-.2-.8,0-1,.5s-1.3,2.7-1.9,4.1v.5l-.9.6.6-1.7c.7-1.3,1.3-2.6,1.9-3.9a2.9,2.9,0,0,0,.2-.9Z" transform="translate(-62.8 -51.4)"/><path class="cls-8" d="M106.3,63.8l-.8,1.2v-.5c0-.1.1-.1.1-.2l.2-.3-.5-.8Z" transform="translate(-62.8 -51.4)"/><path class="cls-24" d="M118.3,68.3a1.9,1.9,0,0,0,.2-.7V66.2c.1.3.4.6.4.8A5.2,5.2,0,0,1,118.3,68.3Z" transform="translate(-62.8 -51.4)"/><path class="cls-24" d="M115.7,70.8l.9-2.2h.1Z" transform="translate(-62.8 -51.4)"/><path class="cls-13" d="M99.9,128.3l.3-.8a8.6,8.6,0,0,1,.1-1.6,3.2,3.2,0,0,1,.3.9Z" transform="translate(-62.8 -51.4)"/><path class="cls-13" d="M97,124.4l-2.2-1.2Z" transform="translate(-62.8 -51.4)"/><path class="cls-13" d="M90.1,121.1l-2-.9Z" transform="translate(-62.8 -51.4)"/><path class="cls-5" d="M96.8,106.4l.9-1.8Z" transform="translate(-62.8 -51.4)"/><path class="cls-23" d="M105.6,64.5V65l-.5.7Z" transform="translate(-62.8 -51.4)"/><path class="cls-13" d="M83.9,123.8v1.3A1,1,0,0,1,83.9,123.8Z" transform="translate(-62.8 -51.4)"/><path class="cls-20" d="M92.8,111.7l1.2.3C93.5,112.5,93.2,112,92.8,111.7Z" transform="translate(-62.8 -51.4)"/><path class="cls-25" d="M81.2,120.9l1.2.6Z" transform="translate(-62.8 -51.4)"/><path class="cls-24" d="M116.9,68.7h1C117.6,69.1,117.2,69,116.9,68.7Z" transform="translate(-62.8 -51.4)"/><path class="cls-25" d="M68.2,113.5v1.1A.8.8,0,0,1,68.2,113.5Z" transform="translate(-62.8 -51.4)"/><path class="cls-25" d="M70.4,112H69.2Q69.8,111.3,70.4,112Z" transform="translate(-62.8 -51.4)"/><path class="cls-13" d="M100.2,125.8l-1-.5Z" transform="translate(-62.8 -51.4)"/><path class="cls-13" d="M94.6,123.2l-.9-.4Z" transform="translate(-62.8 -51.4)"/><path class="cls-25" d="M82.6,121.5l.8.5Z" transform="translate(-62.8 -51.4)"/><path class="cls-13" d="M92.6,122.3l-.8-.5Z" transform="translate(-62.8 -51.4)"/><path class="cls-2" d="M98.7,104h.6Q99,104.6,98.7,104Z" transform="translate(-62.8 -51.4)"/><path class="cls-20" d="M87.2,108.4v.7C86.9,108.9,86.9,108.7,87.2,108.4Z" transform="translate(-62.8 -51.4)"/><path class="cls-1" d="M99.1,145.4v0Z" transform="translate(-62.8 -51.4)"/><path class="cls-13" d="M98.5,128.8h.7C99,129.1,98.8,129.2,98.5,128.8Z" transform="translate(-62.8 -51.4)"/><path class="cls-13" d="M91.5,121.8l-.7-.4Z" transform="translate(-62.8 -51.4)"/><path class="cls-25" d="M76.7,118.8l.7.4Z" transform="translate(-62.8 -51.4)"/><path class="cls-9" d="M95.4,130.6l.7.2Z" transform="translate(-62.8 -51.4)"/><path class="cls-5" d="M95.9,108.3a4.3,4.3,0,0,0,.4-.7A4.3,4.3,0,0,1,95.9,108.3Z" transform="translate(-62.8 -51.4)"/><path class="cls-25" d="M79.2,120l.7.3Z" transform="translate(-62.8 -51.4)"/><path class="cls-13" d="M93.5,122.7l-.7-.4Z" transform="translate(-62.8 -51.4)"/><path class="cls-25" d="M71.3,112.4l-.7-.4Z" transform="translate(-62.8 -51.4)"/><path class="cls-13" d="M98.7,125.1l-.6-.3Z" transform="translate(-62.8 -51.4)"/><path class="cls-25" d="M76,114.6l-.6-.3Z" transform="translate(-62.8 -51.4)"/><path class="cls-20" d="M94.7,111l.2-.6Z" transform="translate(-62.8 -51.4)"/><path class="cls-20" d="M95.2,109.8l.3-.6Z" transform="translate(-62.8 -51.4)"/><path class="cls-6" d="M101.6,70.4H101Q101.3,69.8,101.6,70.4Z" transform="translate(-62.8 -51.4)"/><path class="cls-1" d="M99,146.7v0Z" transform="translate(-62.8 -51.4)"/><path class="cls-23" d="M104.9,65.9c0,.2-.1.3-.2.5S104.9,66.1,104.9,65.9Z" transform="translate(-62.8 -51.4)"/><path class="cls-2" d="M98,103.8l.4.2H98Z" transform="translate(-62.8 -51.4)"/><path class="cls-13" d="M97.7,124.6l-.5-.2Z" transform="translate(-62.8 -51.4)"/><path class="cls-20" d="M89,105l-.4.2Z" transform="translate(-62.8 -51.4)"/><path class="cls-7" d="M87.9,133.5c.3.1.3.3,0,.4Z" transform="translate(-62.8 -51.4)"/><path class="cls-26" d="M103.8,101l-.3-.2.3-.2Z" transform="translate(-62.8 -51.4)"/><path class="cls-25" d="M70.6,115.9l.3.2Z" transform="translate(-62.8 -51.4)"/><path class="cls-25" d="M79.4,116.2l-.3-.2Z" transform="translate(-62.8 -51.4)"/><path class="cls-25" d="M71.1,116.2l.3.2Z" transform="translate(-62.8 -51.4)"/><path class="cls-25" d="M79.9,116.4l-.3-.2Z" transform="translate(-62.8 -51.4)"/><path class="cls-25" d="M74.2,117.6l.4.2Z" transform="translate(-62.8 -51.4)"/><path class="cls-25" d="M75.1,118l.4.2Z" transform="translate(-62.8 -51.4)"/><path class="cls-25" d="M76.2,118.5l.3.2Z" transform="translate(-62.8 -51.4)"/><path class="cls-25" d="M77.6,119.2l.3.2Z" transform="translate(-62.8 -51.4)"/><path class="cls-25" d="M78.8,115.9l-.2-.2Z" transform="translate(-62.8 -51.4)"/><path class="cls-25" d="M78.2,119.5l.3.2Z" transform="translate(-62.8 -51.4)"/><path class="cls-25" d="M78.7,119.7l.3.2Z" transform="translate(-62.8 -51.4)"/><path class="cls-19" d="M113.4,51.8l-.2-.2Z" transform="translate(-62.8 -51.4)"/><path class="cls-13" d="M87.9,120.2l-.3-.2Z" transform="translate(-62.8 -51.4)"/><path class="cls-5" d="M96.6,106.9l.2-.3Z" transform="translate(-62.8 -51.4)"/><path class="cls-25" d="M80.1,120.4l.3.2Z" transform="translate(-62.8 -51.4)"/><path class="cls-25" d="M80.6,120.6l.3.2Z" transform="translate(-62.8 -51.4)"/><path class="cls-20" d="M88.1,106.4v0Z" transform="translate(-62.8 -51.4)"/><path class="cls-13" d="M90.6,121.4l-.3-.2Z" transform="translate(-62.8 -51.4)"/><path class="cls-5" d="M96.4,107.4v0Z" transform="translate(-62.8 -51.4)"/><path class="cls-23" d="M105.9,64l-.2.3Z" transform="translate(-62.8 -51.4)"/><path class="cls-25" d="M83.7,122h.2v.2Z" transform="translate(-62.8 -51.4)"/><path class="cls-20" d="M88.6,105.3l-.2.3Z" transform="translate(-62.8 -51.4)"/><path class="cls-24" d="M118,68.6l.2-.2Z" transform="translate(-62.8 -51.4)"/><path class="cls-24" d="M115.5,71.2v0Z" transform="translate(-62.8 -51.4)"/><path class="cls-11" d="M116.9,86.3l-.2-.3Z" transform="translate(-62.8 -51.4)"/><path class="cls-11" d="M117.1,86.9v0Z" transform="translate(-62.8 -51.4)"/><path class="cls-15" d="M87.6,127l.3.2Z" transform="translate(-62.8 -51.4)"/><path class="cls-20" d="M90.8,110.8l.3.2Z" transform="translate(-62.8 -51.4)"/><path class="cls-20" d="M92,111.4h0Z" transform="translate(-62.8 -51.4)"/><path class="cls-20" d="M94.3,111.7v0Z" transform="translate(-62.8 -51.4)"/><path class="cls-20" d="M95.7,108.8l.2-.4Z" transform="translate(-62.8 -51.4)"/><path class="cls-9" d="M96.4,130.8h0Z" transform="translate(-62.8 -51.4)"/><path class="cls-25" d="M71.8,112.6l-.3-.2Z" transform="translate(-62.8 -51.4)"/><path class="cls-7" d="M86.5,132.8l.3.2Z" transform="translate(-62.8 -51.4)"/><path class="cls-7" d="M87,133l.3.2Z" transform="translate(-62.8 -51.4)"/><path class="cls-25" d="M72.9,113.1l-.3-.2Z" transform="translate(-62.8 -51.4)"/><path class="cls-25" d="M76.9,115l-.3-.2Z" transform="translate(-62.8 -51.4)"/><path class="cls-25" d="M68.6,115l.3.2Z" transform="translate(-62.8 -51.4)"/><path class="cls-25" d="M69.2,115.3l.3.2Z" transform="translate(-62.8 -51.4)"/><path class="cls-25" d="M78,115.5l-.4-.2Z" transform="translate(-62.8 -51.4)"/><path class="cls-11" d="M117.3,88v0Z" transform="translate(-62.8 -51.4)"/><path class="cls-15" d="M89.3,127.7l.3.2Z" transform="translate(-62.8 -51.4)"/><path class="cls-1" d="M106.6,71l.4-1.3.4-.4v-.2l.4-.4.7.4c.1.1.1.3.2.3l.8.6c-.7,1.5-1.4,2.9-2,4.4l-3.3,6.9-3.3,7.1c-1.1,2.1-2.1,4.3-3.1,6.5l-1.1,2.3-.5.2-2.7-1.1c0-.1,0-.2-.1-.2s.6-.4.8-.7l2.5-5.5,2.7-5.7c1-2,1.9-4.1,2.8-6.1l2.7-5.5c.1-.3.2-.6.7-.4s.5-.2.5-.5l.3-.3h0Z" transform="translate(-62.8 -51.4)"/><path class="cls-24" d="M109.9,69.6l1.1.3,3.2,1.5.3.3-2.4-1-2.2-1Z" transform="translate(-62.8 -51.4)"/><path class="cls-23" d="M109.9,69.6h0l-.4.3-.8-.6c-.1,0-.1-.2-.2-.3l.8.2h.6Z" transform="translate(-62.8 -51.4)"/><path class="cls-20" d="M91.4,100.7H91C91.1,100.4,91.2,100.5,91.4,100.7Z" transform="translate(-62.8 -51.4)"/><path class="cls-1" d="M106.2,140.9a2.2,2.2,0,0,1-2.2,2.3,2.3,2.3,0,0,1,0-4.6A2.1,2.1,0,0,1,106.2,140.9Z" transform="translate(-62.8 -51.4)"/><path class="cls-19" d="M106.2,67.8a17.4,17.4,0,0,1,1.1-1.8l.6-1.5,1.2.5c-.1.3-.1.5-.2.8l-.6,1.6h0c-.1.1-.1.2-.2.2l-.3.8h0l-.8-.3h-.3Z" transform="translate(-62.8 -51.4)"/><path class="cls-23" d="M107,68.3l.8.3h0l-.4.4Z" transform="translate(-62.8 -51.4)"/><path class="cls-23" d="M107.4,69.3l-.4.4Z" transform="translate(-62.8 -51.4)"/><path class="cls-23" d="M106.6,71l-.2.3Z" transform="translate(-62.8 -51.4)"/><path class="cls-23" d="M106.4,71.4l-.3.3Z" transform="translate(-62.8 -51.4)"/><path class="cls-23" d="M110.8,93.6a4.7,4.7,0,1,1-.1-9.4,4.7,4.7,0,0,1,4.7,4.7A4.6,4.6,0,0,1,110.8,93.6Z" transform="translate(-62.8 -51.4)"/><path class="cls-26" d="M109.8,95.5c-.3.2-.5.3-.7-.1Z" transform="translate(-62.8 -51.4)"/><path class="cls-26" d="M112.2,95.4c0,.4-.2.3-.5.1Z" transform="translate(-62.8 -51.4)"/><path class="cls-26" d="M108.8,95.4l-.5-.2Z" transform="translate(-62.8 -51.4)"/><path class="cls-26" d="M113,95.2l-.3.2Z" transform="translate(-62.8 -51.4)"/><path class="cls-26" d="M108.1,95.1l-.3-.2Z" transform="translate(-62.8 -51.4)"/><path class="cls-27" d="M117.1,53.8l2.8,1.2,1.8.8a.6.6,0,0,1,.3,1l-3.9,8.3c-.1.2-.1.4-.2.6l-1.8-.7-3.4-1.6c-.1,0-.1-.1-.2-.2l.4-.4c.7-1.4,1.4-2.9,2-4.3l1.8-3.7A3,3,0,0,1,117.1,53.8Z" transform="translate(-62.8 -51.4)"/><path class="cls-12" d="M108.3,67.4l.6-1.6c.1-.3.1-.5.2-.8l1.3.7.3.2h0c.3,1.1-.6,1.7-.8,2.6h-.4c-.3-.2-.9-.1-.9-.7A.9.9,0,0,0,108.3,67.4Z" transform="translate(-62.8 -51.4)"/><path class="cls-8" d="M109.5,61.9l.3.2Z" transform="translate(-62.8 -51.4)"/><path class="cls-18" d="M110.7,65.9l-.3-.2Z" transform="translate(-62.8 -51.4)"/><path class="cls-28" d="M93.2,129.7h0Z" transform="translate(-62.8 -51.4)"/><path class="cls-24" d="M107.8,68.7h0l1.5.8-.8-.2Z" transform="translate(-62.8 -51.4)"/><path class="cls-12" d="M108.1,67.7c.1,0,.1-.1.2-.2S108.2,67.7,108.1,67.7Z" transform="translate(-62.8 -51.4)"/><path class="cls-24" d="M109.8,69.5h0Z" transform="translate(-62.8 -51.4)"/><path class="cls-18" d="M110.6,65.9l-.8-.5h-.4c-.2,0-.3.1-.4.4a7.8,7.8,0,0,1-.5,1.4h0a2.3,2.3,0,0,0-.6,1.2c-.1.3,0,.4.2.6a3.5,3.5,0,0,0,1.1.3.4.4,0,0,0,.5-.2c.2-.2.2-.5.3-.7s.4,0,.5-.2a3.7,3.7,0,0,0,.5-1.7C111,66.1,110.8,66,110.6,65.9Z" transform="translate(-62.8 -51.4)"/></svg>