<svg id="Layer_1" data-name="Layer 1" xmlns="http://www.w3.org/2000/svg" viewBox="0 0 150.13 119.48">
  <title>turtle</title>
  <path d="M991.42,101c.5.57,1,1.16,1.49,1.71,2.18,2.36,4.58,4.54,6.52,7.08,3,3.91,6.33,7.59,8.81,11.9.65,1.12,1.62,2.07,2.29,3.24.94,1.65,2.28,3.08,3.16,4.75a4,4,0,0,0,2.69,2c1.51.47,3,1,4.54,1.39,2.44.7,4.45,3.11,4,5.46-.19,1-.27,2-1.47,2.47-.7.25-.49.86-.21,1.29a5.73,5.73,0,0,0,1,1,3.14,3.14,0,0,1,1.16,2.76,2.2,2.2,0,0,0,1,2.17c.3.25.53.58.83.81,1.57,1.16,1.55,2.83,1.46,4.51a.8.8,0,0,1-.32.55c-1,.6-1.8,1.66-3.32,1.22,0,.46,0,.82-.06,1.18-.08,1.57-.68,2-2.17,1.61a3.1,3.1,0,0,1-.8-.55c-.53.91-.2,1.76-.28,2.55a2,2,0,0,1-1.9,1.81c-.39,0-.92.14-1.13-.05-.89-.83-1.93-.41-2.86-.38-1.52.06-1.7.65-1.11,2.12A6.42,6.42,0,0,0,1021,168c1,0,1.95.67,3.07.53.7-.08,2.26,2.07,2.27,2.85,0,1.47,0,2.94,0,4.42a3.29,3.29,0,0,0,1.08,2.8,2.11,2.11,0,0,1,.43,3,2.25,2.25,0,0,0,.31,2.9c1.32,1.65,1.16,2-.18,3.53a6,6,0,0,1-4.38,1.75c-3.53.27-6.72-1-9.72-2.84a43,43,0,0,1-9.09-7.76,63.88,63.88,0,0,1-5.44-7.49c-1.23-1.81-2-3.82-3.09-5.71a3.11,3.11,0,0,0-1.81-1.78c-.47-.14-.84-.59-1.3-.79-.85-.37-1.8-1-2.59-.89a7.59,7.59,0,0,0-2.3.56,5.17,5.17,0,0,1-2.91.21,1.66,1.66,0,0,1-1.15-1c-.32-1-1.14-1.4-1.69-2.1a1.52,1.52,0,0,0-2-.44c-1.12.69-2.26.3-3.35.28-.64,0-1.25-.68-1.87-1s-1.39-.79-2.05-1.24-1-.8-1.49,0c-3.73.27-7.3-.09-10.22-2.77-.44-.4-.66-.46-1.32-.19a5.05,5.05,0,0,1-4.62-.8c-1.7-1.1-3.39-2.33-4.2-4.41-.22-.57-.37-1.49-1.35-1.59s-2.06-.91-3.2-.22-2-.14-2.81-.6a3.72,3.72,0,0,1-1.83-2.68,3.27,3.27,0,0,0-1.94-2.43,31.63,31.63,0,0,1-6.64-4.74c-1.57-1.44-3.19-2.82-4.72-4.3a5.62,5.62,0,0,1-1.71-2.07c-.31-.82-1.15-.78-1.88-.25a3.29,3.29,0,0,0-1.15,2.53c-.12,1.22-.51,2.59.32,3.78-.23,1.68.81,3.09,1,4.69a8.78,8.78,0,0,0,.9,2.64c1.63,3.36,2.86,6.92,5.08,10a25.11,25.11,0,0,0,2.85,3.7,36.48,36.48,0,0,1,4.74,5.71,5.73,5.73,0,0,1,1.3,3.66,3.68,3.68,0,0,1-3.68,3.86,10,10,0,0,1-3.69-.66,41.54,41.54,0,0,1-11.33-5.73,22.59,22.59,0,0,1-5-4.1c-.71-.83-1.91-1-2.41-2.21-.36-.93-1.51-1.52-2.16-2.37-1.16-1.51-2.27-3.07-3.28-4.68a36.41,36.41,0,0,1-2-3.82,41.58,41.58,0,0,1-3.26-9.83,30.05,30.05,0,0,1-.27-9.11,13.41,13.41,0,0,1,3.47-8.29c2.13-2.13,2.17-2.92,6.87-4.64a6.48,6.48,0,0,0,3.7-3,4.69,4.69,0,0,1-3.34-1.69,3.56,3.56,0,0,1-.58-.92,3.4,3.4,0,0,0-1.73-1.75A3.77,3.77,0,0,1,909.5,106a6.63,6.63,0,0,0-3.41-3.67,51.62,51.62,0,0,0-10.82-4.75,2.72,2.72,0,0,1-.57-.33,20.67,20.67,0,0,1-11.81-7.39c-.72-.88-3-5.05-3-5.92-.08-1.39,0-2.78,0-4.17.68-.42.08-.65-.12-1-.33-.55-.57-1.15-.85-1.74.78-.47.33-1.52,1.1-2.12,1.47-1.14,2.49-2.84,4.41-3.41.9-.27,1.78-.57,2.69-.81,2.49-.64,5-.34,7.49-.41A20.6,20.6,0,0,1,902.25,72c2.34.84,4.11,2.44,6.11,3.77,2.39,1.6,3.76,3.95,5.4,6.12.12.16.16.45.32.52A9.89,9.89,0,0,1,919,87.32c0,.12.71.13.73.06.54-1.54,1.86-1.83,3.21-2.31,1.6-.55,3.13-.24,4.7-.22,0,0,.1.12.16.15,1.35.65,2.84-.22,4.23.47.88.44,1.36.28,3.9-.26a1.77,1.77,0,0,1,.46,0c1.7,0,3.52.36,5.08-.11s3.15-.23,4.72-.33a45.85,45.85,0,0,1,5.11,0,27.5,27.5,0,0,1,2.82.44,10.74,10.74,0,0,1,2.87.38,19,19,0,0,0,3.5.48,83.26,83.26,0,0,1,9.89,2.51A51.22,51.22,0,0,1,980,92.69a42.6,42.6,0,0,1,7.28,4.87C988.65,98.72,990,99.86,991.42,101Zm-55.37,35.61-.22-.27-.21.21a2.92,2.92,0,0,0,.28.21s.09-.09-.28-.42l-.46-.46c-.07-.35.23-.89-.47-.93-.27-.82-.57-1.62-.81-2.45a5.58,5.58,0,0,0-2.73-3.73,4,4,0,0,1-1.75-2.49,13.36,13.36,0,0,1-.26-3.81,4,4,0,0,0-1.8-3.35,39.36,39.36,0,0,1-3.05-2.73.84.84,0,0,1-.28-.56c0-1.47,0-2.93,0-4.39,1.14-.82-.11-1.6,0-2.41a2.87,2.87,0,0,0-1-2.35c-.83-.8-1.64-1.64-2.46-2.45a3.5,3.5,0,0,1-1.15-2.78c.06-1.23,0-2.47,0-3.7.15-.13.43-.24.44-.37a2.79,2.79,0,0,0-.91-2.63,1.29,1.29,0,0,1-.44-1.43c.68-2.7.67-2.87-.59-4.74a5.42,5.42,0,0,1-.88-1.26,4.24,4.24,0,0,0-2.77-2.62A3.72,3.72,0,0,1,912.13,83a24,24,0,0,0-6.63-7.24,20.15,20.15,0,0,0-9.94-3.46,24.59,24.59,0,0,0-9.39.77,9.46,9.46,0,0,0-4.65,2.81,1.64,1.64,0,0,0,.38,2.36c.79.51,1.64.92,2.43,1.43,1.35.87,2.66,1.8,4,2.69.51.33.27.82.32,1.26a5.36,5.36,0,0,1-1.25.1,2.33,2.33,0,0,1-1-.47c-1.09-.75-2.14-1.56-3.25-2.28a5.58,5.58,0,0,0-1.36-.46,7.58,7.58,0,0,0,1.32,6.28c1.33,1.89,2.43,4,4.6,5.33a35.06,35.06,0,0,0,4.79,2.49c2.77,1.19,5.85,1.54,8.45,3.16.28.18.76,0,1.15,0,1,1,2.46,1.34,3.66,2,2.12,1.24,4.12,2.57,5.22,5,.34.75,1.25,1.22,1.87,1.85a12.89,12.89,0,0,1,1.33,1.44,14.76,14.76,0,0,1,1,1.66,3.62,3.62,0,0,0,2.44,1.4c.75.24.74.83,1.05,1.23s0,.83-.09,1.22a9.43,9.43,0,0,1-.67,1.36,6.73,6.73,0,0,1,2.1.14,1.14,1.14,0,0,1,.48,1.77c-1,0-2.13-.06-3.2,0a14.33,14.33,0,0,0-5.2,1.43,13.65,13.65,0,0,0-5.53,6,17.21,17.21,0,0,0-1.67,6.5,29.35,29.35,0,0,0,0,3.25,9.7,9.7,0,0,0,.39,2.85c.29.94.18,2,.52,3,.68,2,1,4.11,1.94,5.93,1.33,2.56,2.38,5.34,4.52,7.42.18,1.1,1.32,1.45,1.79,2.28,1.54,2.74,4.21,4.32,6.44,6.32a28.32,28.32,0,0,0,5.11,3.31,59.16,59.16,0,0,0,5.58,2.78,12.16,12.16,0,0,0,6.11.94,1.13,1.13,0,0,0,1.1-1.17,3.57,3.57,0,0,0-.86-2.67c-1.57-1.91-3.17-3.79-4.76-5.7a39.16,39.16,0,0,1-4.41-6.3,64.17,64.17,0,0,1-4.78-10.79,45,45,0,0,1-1.44-7.52c-.11-.75.38-1.57.4-2.36a5.59,5.59,0,0,1,1.54-3.3c.84-1.09,2.25-1.32,3.52-1.53s1.72.53,1.24,1.82c-.08.2-.19.39-.31.63,1.77,1.77,3.51,3.52,5.26,5.25a1,1,0,0,0,.4.17c0,.7.57.4.93.47A6.18,6.18,0,0,0,936.05,136.62Zm80.28-2.59h.2a1,1,0,0,0-.14-.35s-.18,0-.28.07a.54.54,0,0,0,.35.24c.76,2.71,2.79,4.36,4.6,6.17a12,12,0,0,1,1.07-.54,1.29,1.29,0,0,0,.94-1.36,2.51,2.51,0,0,0-.86-2.33A12.9,12.9,0,0,0,1016.33,134ZM921.67,97.76c-.13,0-.38.1-.38.16a14.64,14.64,0,0,0,0,4.13c.25.91,1.39,1.58,2.14,2.35.43.45.9.86,1.31,1.33a5.69,5.69,0,0,1,1.47,5.12c-.3,1.15-.14,2.24-.38,3.32-.31,1.4.58,2.14,1.44,2.89a13.26,13.26,0,0,0,1.94,1.48A3.38,3.38,0,0,1,931,122a25.78,25.78,0,0,0,0,2.78,3,3,0,0,0,1.17,2.29c2.86,2.13,3.22,2.69,4,6,.3,1.32.87,2.73,2.13,3.21.86.33,1.7.77,2.6,1a3,3,0,0,1,2.32,2.66,16.13,16.13,0,0,1,.37,2.84,3.51,3.51,0,0,0,1.08,2.35c.55.66,1.22.51,1.89.52a16.16,16.16,0,0,1,2.09,0c2,.32,3.91.91,4.69,3.05a5.14,5.14,0,0,0,1.71,2.54,23.17,23.17,0,0,0,2.44,1.37,2.91,2.91,0,0,0,3,.17,1.59,1.59,0,0,1,1.23,0,9.76,9.76,0,0,1,1.62,1.12c1.55,1.2,3.19,2.14,5.25,1.92a10.29,10.29,0,0,0,2.86-.38c1.48-.56,2.82.36,4,1.29,2.17,1.64,3.15,2,5.46.88a2.34,2.34,0,0,1,2.91.59,9,9,0,0,1,1.61,2.1c.64,1,1,1.44,1.85,1s1.56-.3,2.31-.59c1.26-.48,2.47-.63,3.49.57a3.33,3.33,0,0,0,1.11.67c1.13.56,2.43,1.25,3.57.71,1.39-.66,2.71-.15,4-.37,1.14,1,2,.22,2.91-.45a4,4,0,0,1,4.13-.64,4.23,4.23,0,0,0,3.87-.42,7.36,7.36,0,0,1,5.05-1.29c.68.05,1.36,0,2,0,0-.3.15-.49.09-.58-.38-.58-.87-1.12-.17-1.79.49-.46.86-1.09,1.73-.9a8.69,8.69,0,0,0,1.71,0c0-.4,0-.69,0-1a2,2,0,0,1,1.66-1.82c.69-.15,1.38-.37,2-.54.32-1.56,0-2.68-1.54-3.13a2.08,2.08,0,0,1-1.65-2.54,2.28,2.28,0,0,0,0-.69c-.07-.51,0-1.21-.31-1.47-.77-.67-1.14-1.93-2.47-1.85.2-.76-.4-1.1-.82-1.51a24.15,24.15,0,0,1-4.59-5.54,52,52,0,0,1-3.15-5.42,11.63,11.63,0,0,0-1.62-2.58c-1.95-2.57-3.53-5.38-5.5-8s-4-5.33-6.1-7.91c-1-1.23-2.19-2.31-3.13-3.57a56.55,56.55,0,0,0-7.64-7.83c-.3-1.08-1.43-1.22-2.11-1.88-2.24-2.17-5-3.56-7.66-5.08a46,46,0,0,0-8.5-3.6,55.09,55.09,0,0,0-9.9-2.53,12.31,12.31,0,0,1-3-.47,9.92,9.92,0,0,0-2.86-.4c-1-.11-1.89-.4-2.84-.43-1.85-.07-3.72-.08-5.57,0s-3.76-.26-5.64.4a6.46,6.46,0,0,1-3,0c-1.12-.19-2,.46-3.07.52-2,.12-3.86-.83-5.85-.49-1.33-.91-2.83-.49-4.22-.41a3.06,3.06,0,0,0-3.09,3.12c0,1.8-1,3.87.84,5.45.11.1,0,.44,0,.68Zm78.1,66.5a7.21,7.21,0,0,0-.93,0,.93.93,0,0,0-.59,1.46c.77,1.47,1.55,2.93,2.38,4.37a43.2,43.2,0,0,0,7,9.19c1.4,1.38,2.85,2.71,4.37,4a27.2,27.2,0,0,0,6.59,3.78,5.6,5.6,0,0,0,2.59.49c.34,0,.68.23,1,.28a5.81,5.81,0,0,0,1.25,0c.43-.06.85-.24,1.28-.28,1.88-.16,2.71-1.62,1.46-3a2.31,2.31,0,0,1-.31-3.18c.63-.92.25-1.34-.17-2.16-.65-1.28-2.65-2.28-1.27-4.19-.88-1-.23-2,0-3.11s-.22-1.47-1.17-1.51-1.94-.74-3.06-.52a4.89,4.89,0,0,1-3.93-1.07c-1.41-1.16-3.09-2.27-3.45-4.34a1.19,1.19,0,0,0-1.42-1.09,7.45,7.45,0,0,1-2.54,0,3.75,3.75,0,0,0-3.72.89,2.62,2.62,0,0,1-2.07.56C1002,164.52,1000.86,164.41,999.77,164.26Zm-61.36-25.47,3,1.94C940.43,138.81,940.43,138.81,938.41,138.79Zm-.07-.28-.16-.3c0,.06-.15.12-.15.16a1.77,1.77,0,0,0,.15.31Z" transform="translate(-878.89 -70.32)" fill="#0f1310"/>
  <path d="M969.57,188.9l-.47.47Z" transform="translate(-878.89 -70.32)" fill="#447e9a"/>
  <path d="M988.17,101a56.55,56.55,0,0,1,7.64,7.83c.94,1.26,2.12,2.34,3.13,3.57,2.12,2.58,4.08,5.27,6.1,7.91s3.55,5.39,5.5,8a11.63,11.63,0,0,1,1.62,2.58,52,52,0,0,0,3.15,5.42,24.15,24.15,0,0,0,4.59,5.54c.42.41,1,.75.4,3.88.08,2.11.63,2,.67,1.75a11,11,0,0,0,.16-2.92c0-.34-.49-.71-.41-1.2a3.58,3.58,0,0,0-1.14,0,.81.81,0,0,0-.23.77c.71,1.17.3,2.48.95,1.56,1.75-2.45,2.12-1.19,2.89-.52.3.26.24,1,.31,1.47a2.28,2.28,0,0,1,0,.69,2.08,2.08,0,0,0,1.65,2.54c1.5.45,1.86,1.57,1.54,3.13-.61.17-1.3.39-2,.54a2,2,0,0,0-1.66,1.82c0,.29,0,.58,0,1a8.69,8.69,0,0,1-1.71,0c-.87-.19-1.24.44-1.73.9-.7.67-.21,1.21.17,1.79.06.09,0,.28-.09.58-.64,0-1.32.05-2,0a7.36,7.36,0,0,0-5.05,1.29,4.23,4.23,0,0,1-3.87.42,4,4,0,0,0-4.13.64c-.87.67-1.77,1.44-2.91.45-1.33.22-2.65-.29-4,.37-1.14.54-2.44-.15-3.57-.71a3.33,3.33,0,0,1-1.11-.67c-1-1.2-2.23-1-3.49-.57-.75.29-1.54.24-2.31.59s-1.21,0-1.85-1a9,9,0,0,0-1.61-2.1,2.34,2.34,0,0,0-2.91-.59c-2.31,1.07-3.29.76-5.46-.88-1.23-.93-2.57-1.85-4-1.29a10.29,10.29,0,0,1-2.86.38c-2.06.22-3.7-.72-5.25-1.92a9.76,9.76,0,0,0-1.62-1.12,1.59,1.59,0,0,0-1.23,0,2.91,2.91,0,0,1-3-.17,23.17,23.17,0,0,1-2.44-1.37,5.14,5.14,0,0,1-1.71-2.54c-.78-2.14-2.69-2.73-4.69-3.05a16.16,16.16,0,0,0-2.09,0c-.67,0-1.34.14-1.89-.52a3.51,3.51,0,0,1-1.08-2.35,16.13,16.13,0,0,0-.37-2.84,3,3,0,0,0-2.32-2.66c-.9-.25-1.74-.69-2.6-1-1.26-.48-1.83-1.89-2.13-3.21-.73-3.32-1.09-3.88-4-6a3,3,0,0,1-1.17-2.29,25.78,25.78,0,0,1,0-2.78,3.38,3.38,0,0,0-1.76-3.43,13.26,13.26,0,0,1-1.94-1.48c-.86-.75-1.75-1.49-1.44-2.89.24-1.08.08-2.17.38-3.32a5.69,5.69,0,0,0-1.47-5.12c-.41-.47-.88-.88-1.31-1.33-.75-.77-1.89-1.44-2.14-2.35a14.64,14.64,0,0,1,0-4.13c0-.06.25-.11.38-.16,2.78,0,5.56,0,8.34,0a46.53,46.53,0,0,1,8.16.39c2.43.47,5-.24,7.46.46a12.81,12.81,0,0,0,4.15,0c1.37-.08,2.59.84,4,.48,1,1.42,2,2.86,3.1,4.24.34.44.7,1.06,1.46.87a1.18,1.18,0,0,0,.54-.29.43.43,0,0,0,0-.42c-.8-1-1.64-1.93-2.41-2.93a3.11,3.11,0,0,1-.34-1c1.53,0,3.15-.21,4.55.23s3-.35,4.33.7c2.21-.32,4.34.47,6.53.47C977.05,101,982.61,101,988.17,101Zm-31.94,42.61L955,145.4c1.39.73,1.9-.37,2.54-1a1.1,1.1,0,0,0-.2-1.88,13.67,13.67,0,0,0-2.35-1c-2.7-.88-2.7-.87-4.81-2.87a1.36,1.36,0,0,0-.76-.37,1.27,1.27,0,0,0-.76.29s.07.42.19.58a7.57,7.57,0,0,0,3,2.61C953.29,142.29,954.65,142.92,956.23,143.62ZM994.68,130c0-.15,0-.36-.07-.43a6.3,6.3,0,0,0-1.4-1.09c-1.49-.68-3-1.29-4.55-1.87-1.27-.48-2.6-.81-3.86-1.31-.76-.31-1,.27-1.25.63s.1.56.57.7c1.3.38,2.54,1,3.83,1.35,1.86.55,3.83.78,5.39,2.12.24.21.7.18,1.06.2C994.49,130.3,994.59,130.1,994.68,130ZM960,110.82c-1.12-.09-1.68,0-2.08.91-1.11,2.55-2.38,5-3.56,7.54a1.3,1.3,0,0,0-.1.86,1,1,0,0,0,.61.39,5,5,0,0,0,1.26-1.52c.82-2,1.82-3.87,2.75-5.8C959.21,112.49,959.54,111.78,960,110.82Zm21.2,13.47a2.86,2.86,0,0,0,0-.68c-.25-.6-.52-1.18-.79-1.76-.66-1.43-1.3-2.86-2-4.25-.11-.21-.63-.3-1-.29-.61,0-.42.55-.38.87s.32.48.44.74c.71,1.63,1.42,3.27,2.12,4.9.11.27.15.63.35.77a1.12,1.12,0,0,0,.85.11C981,124.65,981.14,124.36,981.19,124.29Zm-14.31,24.3a2.48,2.48,0,0,0-.37-.63,4.2,4.2,0,0,0-1.45-1,9.57,9.57,0,0,1-4.15-2.32c-.11-.11-.2-.28-.33-.32a1.18,1.18,0,0,0-.62,0c-.09,0-.17.27-.15.38a2.34,2.34,0,0,0,.35,1,8.79,8.79,0,0,0,4.22,2.67c.48.15,1.12-.1,1.07.76,0,.06.45.25.58.17A5.34,5.34,0,0,0,966.88,148.59ZM1004.62,125l-3.5,2.38c-1,.67-1.9,1.37-2.88,2-.52.34-.36.84-.22,1.18.07.19.66.18,1,.21.11,0,.23-.18.35-.27a26.93,26.93,0,0,1,4.81-3.46C1004.82,126.72,1005.21,126.1,1004.62,125Zm5.4,14.75c-2.65-.51-5,.32-7.35.47v1.31l7.2-.59c.06,0,.1-.11.15-.16Zm-43.48-30.4a1.2,1.2,0,0,0,.6,1.91,13.28,13.28,0,0,1,2.31,1.1c1.2,1,2.48.71,3.8.76.09-.94-.37-1.35-1-1.36a4.59,4.59,0,0,1-2.43-.89A26.45,26.45,0,0,0,966.54,109.33Zm-37.29-9.7a4.08,4.08,0,0,0,.4,3.09,12.76,12.76,0,0,1,1.26,2.91c.13.83.32,1.17,1.06.94s.42-.8.25-1.28c0-.07-.13-.1-.15-.17-.63-1.81-1.25-3.63-1.89-5.49Zm46.54,51.63c-.53,1,0,1.44.8,1.63a33.13,33.13,0,0,0,5.76,1.12c.07,0,.16-.22.31-.45-.14-.2-.27-.52-.49-.63C980.15,152,977.88,151.91,975.79,151.26Zm-34.71-20.42a8.87,8.87,0,0,0,5.51,5.14c.39-1,.18-1.6-.82-2a5.54,5.54,0,0,1-3.11-2.7C942.19,130.37,941.75,130.93,941.08,130.84Zm11.44-9.37c-1.84,0-3.43,0-5,0-.4,0-.77.36-1.18.43-.76.13-.47.71-.44,1.06,0,.57.69.46.89.32,1-.66,2-.38,3-.43q.69,0,1.38,0C951.94,122.91,952.19,122.4,952.52,121.47Zm23.09,10.23c.25,0,.58.09.69,0,1.14-1.17,2.75-1.6,4-2.58a3.88,3.88,0,0,0,.8-.82.81.81,0,0,0,0-.61.43.43,0,0,0-.38-.14,3.52,3.52,0,0,0-1,.33q-1.94,1.19-3.82,2.43a2.09,2.09,0,0,0-.64.65.86.86,0,0,0,0,.61C975.28,131.63,975.5,131.65,975.61,131.7Zm-19.41-7.47c-.23.08-.45.1-.48.19a1.83,1.83,0,0,0,0,.62c0,.06.11.11.16.16,1.48,1.5,3.49,2,5.35,2.76.08,0,.44-.23.43-.34,0-.38.23-.79-.46-1.07-1.45-.59-2.82-1.4-4.23-2.1A3.25,3.25,0,0,0,956.2,124.23Zm41,19.18c-.23-.25-.34-.5-.49-.52s-.71-.11-.87.05a29.78,29.78,0,0,1-4,3.07.83.83,0,0,0-.35.53,1.31,1.31,0,0,0,.14.84c.07.1.54,0,.74-.09,1-.67,2.06-1.34,3-2.1A23.21,23.21,0,0,0,997.16,143.41Zm-15.58-38.77a12.78,12.78,0,0,0-4.25,4.18c-.09.19-.29.37-.3.56a3.59,3.59,0,0,0,.14.86c.27-.06.63,0,.78-.2,1.23-1.33,2.45-2.68,3.6-4.09C981.75,105.7,981.58,105.15,981.58,104.64Zm13.23,52.8c-.32-.37-.59-1-.92-1a5.35,5.35,0,0,1-2.68-1.35,2.37,2.37,0,0,0-2.48-.43c-.17.68-.36,1.17.77,1.33.93.13,1.73,1,2.66,1.3C992.93,157.51,993.72,158.18,994.81,157.44Zm-22.46-22a12,12,0,0,1-.39,3.07c-.23,1-.88,1.94-.52,3a.66.66,0,0,0,.39.41.62.62,0,0,0,.51-.28c.49-1.57,1-3.14,1.39-4.74C973.93,136,973.52,135.44,972.35,135.41Zm33.52,22.8a5.24,5.24,0,0,0,1.07,0c1.41-.33,2.71-1.14,4.25-.95.19,0,.43-.4.65-.62-.25-.25-.49-.69-.76-.71a7.42,7.42,0,0,0-2,.21,15.19,15.19,0,0,1-2.49.64C1005.52,156.81,1005.89,157.47,1005.87,158.21Zm-70.63-34.34c1.08-.17,1.58-.84,1.25-1.59a5.94,5.94,0,0,1-.42-1.67,3.9,3.9,0,0,0-1.57-2.32c-.11-.1-.42,0-.6,0s-.14.26-.13.39a2.29,2.29,0,0,0,.19.83A9.74,9.74,0,0,1,935.24,123.87Zm-2.41-14.94c-1,0-1.38.4-1.39,1.2,0,1.45,0,2.91,0,4.36a.6.6,0,0,0,.35.45.65.65,0,0,0,.55-.24,4.1,4.1,0,0,0,.46-1.41C932.87,111.86,932.83,110.42,932.83,108.93ZM998.4,139.3c0-1.15,0-2.05,0-3a8,8,0,0,0-.2-2.87c-1.14.78-1.17.78-1.18,1.27,0,1.08,0,2.15,0,3.22C997,138.73,997.48,139,998.4,139.3ZM944.69,110a7.84,7.84,0,0,1,1.89-.54c.74,0,.67-.43.67-.9,0-.78-.69-.64-1-.5-1,.48-1.92.78-2.91,0-.1-.08-.36-.13-.41-.07-.3.31-.55.65-.82,1a3.25,3.25,0,0,0,.67.39C943.41,109.59,944,109.76,944.69,110Zm70.16,45.83c.64.05,1.1.22,1.33.07a4.78,4.78,0,0,0,2.2-2.89,2.3,2.3,0,0,0-.09-1.1c0-.11-.51-.22-.57-.15-.21.27-.3.63-.51.92C1016.5,153.62,1015.75,154.59,1014.85,155.79Zm8.09-3.6.23-.51c-.36-.3-.69-.81-1.08-.86a5.63,5.63,0,0,1-1.87-.49c-.23-.12-.83-.24-.87.34,0,.36-.19.74.42,1.08C1020.85,152.36,1021.89,152,1022.94,152.19Zm-75.16-15.31a5.13,5.13,0,0,0-.8-.51.71.71,0,0,0-.59.17A8.64,8.64,0,0,0,945,138c-.16.22,0,.75.15,1a.88.88,0,0,0,.84.07,15.91,15.91,0,0,0,1.66-1.52C947.7,137.52,947.68,137.33,947.78,136.88Zm52.33,20.46s-.26.2-.29.41a1,1,0,0,0,.15.83,3.66,3.66,0,0,0,3.39,0,.48.48,0,0,0,.14-.39c0-.13-.08-.35-.16-.37C1002.35,157.66,1001.36,157.52,1000.11,157.34Zm-15.27-.84v-3.35a5,5,0,0,0-.72-.05,4.53,4.53,0,0,0-.67.18C983.8,154.36,982.84,155.81,984.84,156.5ZM938,129.66a3.45,3.45,0,0,0,0,.79c0,.12.17.31.26.31a.88.88,0,0,0,.6-.19c.21-.27.29-.66.51-.93.94-1.13,1.23-1.9.75-2-1-.29-1.2.74-1.73,1.19A1.79,1.79,0,0,0,938,129.66Zm74.51,25.83c0,2,.85,2.79,2.25,2.71.13,0,.35-.1.36-.18s.06-.51-.06-.61C1014.29,156.82,1013.52,156.28,1012.46,155.49Zm-40.89-3.7c-.19,2.26-.19,2.26,1.17,2.61v-2.66c-.3,0-.52,0-.74,0A3.67,3.67,0,0,0,971.57,151.79Zm-6.26-1c-.81,0-1.63,1.62-1.23,2.16.09.13.39.17.6.17.65,0,1.47-1.6,1.08-2.15C965.66,150.8,965.38,150.79,965.31,150.76Zm31.53,9.39c.21-2.39.21-2.39-1.29-2.85C995.8,158.35,995,159.61,996.84,160.15Z" transform="translate(-878.89 -70.32)" fill="#f2ea2a"/>
  <path d="M919.35,97.76c0,1.23,0,2.47,0,3.7a3.5,3.5,0,0,0,1.15,2.78c.82.81,1.63,1.65,2.46,2.45a2.87,2.87,0,0,1,1,2.35c-.07.81,1.18,1.59,0,2.41,0,1.46,0,2.92,0,4.39a.84.84,0,0,0,.28.56,39.36,39.36,0,0,0,3.05,2.73,4,4,0,0,1,1.8,3.35,13.36,13.36,0,0,0,.26,3.81,4,4,0,0,0,1.75,2.49,5.58,5.58,0,0,1,2.73,3.73c.24.83.54,1.63.81,2.45l-.46.46a1,1,0,0,1-.4-.17c-1.75-1.73-3.49-3.48-5.26-5.25.12-.24.23-.43.31-.63.48-1.29,0-2-1.24-1.82s-2.68.44-3.52,1.53a5.59,5.59,0,0,0-1.54,3.3c0,.79-.51,1.61-.4,2.36a45,45,0,0,0,1.44,7.52,64.17,64.17,0,0,0,4.78,10.79,39.16,39.16,0,0,0,4.41,6.3c1.59,1.91,3.19,3.79,4.76,5.7a3.57,3.57,0,0,1,.86,2.67,1.13,1.13,0,0,1-1.1,1.17,12.16,12.16,0,0,1-6.11-.94,59.16,59.16,0,0,1-5.58-2.78,28.32,28.32,0,0,1-5.11-3.31c-2.23-2-4.9-3.58-6.44-6.32-.47-.83-1.61-1.18-1.79-2.28-2.14-2.08-3.19-4.86-4.52-7.42-.94-1.82-1.26-4-1.94-5.93-.34-1-.23-2.1-.52-3a9.7,9.7,0,0,1-.39-2.85,29.35,29.35,0,0,1,0-3.25,17.21,17.21,0,0,1,1.67-6.5,13.65,13.65,0,0,1,5.53-6,14.33,14.33,0,0,1,5.2-1.43c1.07-.08,2.15,0,3.2,0a1.14,1.14,0,0,0-.48-1.77,6.73,6.73,0,0,0-2.1-.14,9.43,9.43,0,0,0,.67-1.36c.12-.39.28-1,.09-1.22s-.3-1-1.05-1.23a3.62,3.62,0,0,1-2.44-1.4,14.76,14.76,0,0,0-1-1.66,12.89,12.89,0,0,0-1.33-1.44c-.62-.63-1.53-1.1-1.87-1.85-1.1-2.38-3.1-3.71-5.22-5-1.2-.7-2.62-1-3.66-2Z" transform="translate(-878.89 -70.32)" fill="#f2ea2a"/>
  <path d="M919.35,97.76H902.14c-.39,0-.87.15-1.15,0-2.6-1.62-5.68-2-8.45-3.16a35.06,35.06,0,0,1-4.79-2.49c-2.17-1.33-3.27-3.44-4.6-5.33a7.58,7.58,0,0,1-1.32-6.28,5.58,5.58,0,0,1,1.36.46c1.11.72,2.16,1.53,3.25,2.28a2.33,2.33,0,0,0,1,.47,5.36,5.36,0,0,0,1.25-.1c0-.44.19-.93-.32-1.26-1.34-.89-2.65-1.82-4-2.69-.79-.51-1.64-.92-2.43-1.43a1.64,1.64,0,0,1-.38-2.36A9.46,9.46,0,0,1,886.17,73a24.59,24.59,0,0,1,9.39-.77,20.15,20.15,0,0,1,9.94,3.46A24,24,0,0,1,912.13,83a3.72,3.72,0,0,0,2.07,1.75A4.24,4.24,0,0,1,917,87.33a5.42,5.42,0,0,0,.88,1.26c1.26,1.87,1.27,2,.59,4.74a1.29,1.29,0,0,0,.44,1.43,2.79,2.79,0,0,1,.91,2.63C919.78,97.52,919.5,97.63,919.35,97.76ZM898.88,79.1a2.19,2.19,0,0,0-1.42-2.27A2.74,2.74,0,0,0,894.7,78a3.05,3.05,0,0,0,1,3.81,1.28,1.28,0,0,0,.86.13A2.79,2.79,0,0,0,898.88,79.1Z" transform="translate(-878.89 -70.32)" fill="#f2ea2a"/>
  <path d="M988.17,101c-5.56,0-11.12,0-16.68,0-2.19,0-4.32-.79-6.53-.47-1.29-1-2.88-.23-4.33-.7s-3-.18-4.55-.23a5.32,5.32,0,0,1-.91-.86c-.45-.63-.78-1.35-1.25-2-.18-.22-.61-.25-.92-.37-.06.36-.25.76-.14,1.06a11.23,11.23,0,0,0,.9,1.67c-1.39.36-2.61-.56-4-.48a12.81,12.81,0,0,1-4.15,0c-2.5-.7-5,0-7.46-.46a46.53,46.53,0,0,0-8.16-.39c-2.78,0-5.56,0-8.34,0V95.9c0-.24.1-.58,0-.68-1.81-1.58-.83-3.65-.84-5.45a3.06,3.06,0,0,1,3.09-3.12c1.39-.08,2.89-.5,4.22.41,2-.34,3.87.61,5.85.49,1-.06,1.95-.71,3.07-.52a6.46,6.46,0,0,0,3,0c1.88-.66,3.76-.33,5.64-.4s3.72-.06,5.57,0c1,0,1.89.32,2.84.43a9.92,9.92,0,0,1,2.86.4,12.31,12.31,0,0,0,3,.47,55.09,55.09,0,0,1,9.9,2.53,46,46,0,0,1,8.5,3.6c2.66,1.52,5.42,2.91,7.66,5.08C986.74,99.79,987.87,99.93,988.17,101Zm-41.32-8.29h-6.13l.09,1.32c1.61,0,3.07,0,4.53,0C946.13,94.07,946.64,93.81,946.85,92.72ZM928.76,94.5c.12-.08.34-.16.34-.24a5.91,5.91,0,0,1,.45-2.78c.18-.36,0-.75-.54-.7-.33,0-.78-.17-.84.45a2.75,2.75,0,0,1-.3,1c-.54.89.28,1.47.48,2.18C928.37,94.48,928.62,94.48,928.76,94.5Zm26.61-1.37a3.37,3.37,0,0,0,2.18-1.27,1.47,1.47,0,0,0,.37-.76,1.37,1.37,0,0,0-.28-.77s-.4.08-.58.18a12,12,0,0,0-1.28.81A1.22,1.22,0,0,0,955.37,93.13Z" transform="translate(-878.89 -70.32)" fill="#f2ea2a"/>
  <path d="M999.77,164.25c1.09.16,2.2.27,3.29.48a2.62,2.62,0,0,0,2.07-.56,3.75,3.75,0,0,1,3.72-.89,7.45,7.45,0,0,0,2.54,0,1.19,1.19,0,0,1,1.42,1.09c.36,2.07,2,3.18,3.45,4.34a4.89,4.89,0,0,0,3.93,1.07c1.12-.22,2,.47,3.06.52s1.35.56,1.17,1.51-.86,2.07,0,3.11c-1.38,1.91.62,2.91,1.27,4.19.42.82.8,1.24.17,2.16a2.31,2.31,0,0,0,.31,3.18c1.25,1.41.42,2.87-1.46,3-.43,0-.85.22-1.28.28a5.81,5.81,0,0,1-1.25,0c-.36-.05-.7-.3-1-.28a5.6,5.6,0,0,1-2.59-.49,27.2,27.2,0,0,1-6.59-3.78c-1.52-1.27-3-2.6-4.37-4a43.2,43.2,0,0,1-7-9.19c-.83-1.44-1.61-2.9-2.38-4.37a.93.93,0,0,1,.59-1.46C999.14,164.22,999.46,164.26,999.77,164.25Z" transform="translate(-878.89 -70.32)" fill="#f2ea2a"/>
  <path d="M1016.46,134a13.46,13.46,0,0,1,5.75,1.94,2.51,2.51,0,0,1,.86,2.33,1.29,1.29,0,0,1-.94,1.36,12,12,0,0,0-1.07.54C1019.25,138.35,1017.22,136.7,1016.46,134Z" transform="translate(-878.89 -70.32)" fill="#f2ea2a"/>
  <path d="M938.41,138.79c2,0,2,0,3,1.94Z" transform="translate(-878.89 -70.32)" fill="#8bbc65"/>
  <path d="M934.23,135.42l.46-.46c.7,0,.4.58.47.93C934.8,135.82,934.27,136.12,934.23,135.42Z" transform="translate(-878.89 -70.32)" fill="#708487"/>
  <path d="M938.34,138.51l-.16.17a1.77,1.77,0,0,1-.15-.31s.1-.1.15-.16Z" transform="translate(-878.89 -70.32)" fill="#8bbc65"/>
  <path d="M935.16,135.89l.46.46Z" transform="translate(-878.89 -70.32)" fill="#708487"/>
  <path d="M1016.33,134c-.07-.09-.15-.18-.22-.28.1,0,.26-.1.28-.07a1,1,0,0,1,.14.35Z" transform="translate(-878.89 -70.32)" fill="#8bbc65"/>
  <path d="M936.05,136.62c-.06.06-.13.16-.15.15a2.92,2.92,0,0,1-.28-.21l.21-.21Z" transform="translate(-878.89 -70.32)" fill="#708487"/>
  <path d="M992.35,181l.47-.47Z" transform="translate(-878.89 -70.32)" fill="#82adc6"/>
  <path d="M956.23,143.62c-1.58-.7-2.94-1.33-4.33-1.9a7.57,7.57,0,0,1-3-2.61c-.12-.16-.24-.55-.19-.58a1.27,1.27,0,0,1,.76-.29,1.36,1.36,0,0,1,.76.37c2.11,2,2.11,2,4.81,2.87a13.67,13.67,0,0,1,2.35,1,1.1,1.1,0,0,1,.2,1.88c-.64.63-1.15,1.73-2.54,1Z" transform="translate(-878.89 -70.32)" fill="#14181a"/>
  <path d="M994.68,130c-.09.11-.19.31-.28.3-.36,0-.82,0-1.06-.2-1.56-1.34-3.53-1.57-5.39-2.12-1.29-.39-2.53-1-3.83-1.35-.47-.14-.79-.34-.57-.7s.49-.94,1.25-.63c1.26.5,2.59.83,3.86,1.31,1.54.58,3.06,1.19,4.55,1.87a6.3,6.3,0,0,1,1.4,1.09C994.69,129.63,994.66,129.84,994.68,130Z" transform="translate(-878.89 -70.32)" fill="#14181a"/>
  <path d="M960,110.82c-.45,1-.78,1.67-1.12,2.38-.93,1.93-1.93,3.82-2.75,5.8a5,5,0,0,1-1.26,1.52,1,1,0,0,1-.61-.39,1.3,1.3,0,0,1,.1-.86c1.18-2.52,2.45-5,3.56-7.54C958.31,110.81,958.87,110.73,960,110.82Z" transform="translate(-878.89 -70.32)" fill="#14181a"/>
  <path d="M953.76,99.15a11.23,11.23,0,0,1-.9-1.67c-.11-.3.08-.7.14-1.06.31.12.74.15.92.37.47.62.8,1.34,1.25,2a5.32,5.32,0,0,0,.91.86,3.11,3.11,0,0,0,.34,1c.77,1,1.61,1.95,2.41,2.93a.43.43,0,0,1,0,.42,1.18,1.18,0,0,1-.54.29c-.76.19-1.12-.43-1.46-.87C955.79,102,954.79,100.57,953.76,99.15Z" transform="translate(-878.89 -70.32)" fill="#0f1310"/>
  <path d="M981.19,124.29c-.05.07-.2.36-.4.41a1.12,1.12,0,0,1-.85-.11c-.2-.14-.24-.5-.35-.77-.7-1.63-1.41-3.27-2.12-4.9-.12-.26-.4-.48-.44-.74s-.23-.85.38-.87c.33,0,.85.08,1,.29.73,1.39,1.37,2.82,2,4.25.27.58.54,1.16.79,1.76A2.86,2.86,0,0,1,981.19,124.29Z" transform="translate(-878.89 -70.32)" fill="#14181a"/>
  <path d="M966.88,148.59a5.34,5.34,0,0,1-.85.76c-.13.08-.58-.11-.58-.17,0-.86-.59-.61-1.07-.76a8.79,8.79,0,0,1-4.22-2.67,2.34,2.34,0,0,1-.35-1c0-.11.06-.35.15-.38a1.18,1.18,0,0,1,.62,0c.13,0,.22.21.33.32a9.57,9.57,0,0,0,4.15,2.32,4.2,4.2,0,0,1,1.45,1A2.48,2.48,0,0,1,966.88,148.59Z" transform="translate(-878.89 -70.32)" fill="#0f1310"/>
  <path d="M1004.62,125c.59,1.12.2,1.74-.42,2a26.93,26.93,0,0,0-4.81,3.46c-.12.09-.24.27-.35.27-.36,0-.95,0-1-.21-.14-.34-.3-.84.22-1.18,1-.64,1.91-1.34,2.88-2Z" transform="translate(-878.89 -70.32)" fill="#14181a"/>
  <path d="M1010,139.73v1c0,.05-.09.15-.15.16l-7.2.59V140.2C1005,140.05,1007.37,139.22,1010,139.73Z" transform="translate(-878.89 -70.32)" fill="#14181a"/>
  <path d="M966.54,109.33a26.45,26.45,0,0,1,3.28,1.52,4.59,4.59,0,0,0,2.43.89c.63,0,1.09.42,1,1.36-1.32,0-2.6.21-3.8-.76a13.28,13.28,0,0,0-2.31-1.1A1.2,1.2,0,0,1,966.54,109.33Z" transform="translate(-878.89 -70.32)" fill="#14181a"/>
  <path d="M929.25,99.63h.93c.64,1.86,1.26,3.68,1.89,5.49,0,.07.13.1.15.17.17.48.47,1.06-.25,1.28s-.93-.11-1.06-.94a12.76,12.76,0,0,0-1.26-2.91A4.08,4.08,0,0,1,929.25,99.63Z" transform="translate(-878.89 -70.32)" fill="#14181a"/>
  <path d="M975.79,151.26c2.09.65,4.36.69,6.38,1.67.22.11.35.43.49.63-.15.23-.24.45-.31.45a33.13,33.13,0,0,1-5.76-1.12C975.81,152.7,975.26,152.25,975.79,151.26Z" transform="translate(-878.89 -70.32)" fill="#14181a"/>
  <path d="M941.08,130.84c.67.09,1.11-.47,1.58.47a5.54,5.54,0,0,0,3.11,2.7c1,.37,1.21.94.82,2A8.87,8.87,0,0,1,941.08,130.84Z" transform="translate(-878.89 -70.32)" fill="#14181a"/>
  <path d="M952.52,121.47c-.33.93-.58,1.44-1.33,1.4q-.69,0-1.38,0c-1,0-2.08-.23-3,.43-.2.14-.84.25-.89-.32,0-.35-.32-.93.44-1.06.41-.07.78-.41,1.18-.43C949.09,121.44,950.68,121.47,952.52,121.47Z" transform="translate(-878.89 -70.32)" fill="#14181a"/>
  <path d="M975.61,131.7c-.11,0-.33-.07-.36-.15a.86.86,0,0,1,0-.61,2.09,2.09,0,0,1,.64-.65q1.89-1.24,3.82-2.43a3.52,3.52,0,0,1,1-.33.43.43,0,0,1,.38.14.81.81,0,0,1,0,.61,3.88,3.88,0,0,1-.8.82c-1.25,1-2.86,1.41-4,2.58C976.19,131.79,975.86,131.7,975.61,131.7Z" transform="translate(-878.89 -70.32)" fill="#14181a"/>
  <path d="M956.2,124.23a3.25,3.25,0,0,1,.75.22c1.41.7,2.78,1.51,4.23,2.1.69.28.43.69.46,1.07,0,.11-.35.38-.43.34-1.86-.78-3.87-1.26-5.35-2.76-.05,0-.15-.1-.16-.16a1.83,1.83,0,0,1,0-.62C955.75,124.33,956,124.31,956.2,124.23Z" transform="translate(-878.89 -70.32)" fill="#14181a"/>
  <path d="M997.16,143.41a23.21,23.21,0,0,1-1.81,1.78c-1,.76-2,1.43-3,2.1-.2.13-.67.19-.74.09a1.31,1.31,0,0,1-.14-.84.83.83,0,0,1,.35-.53,29.78,29.78,0,0,0,4-3.07c.16-.16.59-.11.87-.05S996.93,143.16,997.16,143.41Z" transform="translate(-878.89 -70.32)" fill="#14181a"/>
  <path d="M981.58,104.64c0,.51.17,1.06,0,1.31-1.15,1.41-2.37,2.76-3.6,4.09-.15.17-.51.14-.78.2a3.59,3.59,0,0,1-.14-.86c0-.19.21-.37.3-.56A12.78,12.78,0,0,1,981.58,104.64Z" transform="translate(-878.89 -70.32)" fill="#0f1310"/>
  <path d="M994.81,157.44c-1.09.74-1.88.07-2.65-.19-.93-.33-1.73-1.17-2.66-1.3-1.13-.16-.94-.65-.77-1.33a2.37,2.37,0,0,1,2.48.43,5.35,5.35,0,0,0,2.68,1.35C994.22,156.43,994.49,157.07,994.81,157.44Z" transform="translate(-878.89 -70.32)" fill="#0f1310"/>
  <path d="M972.35,135.41c1.17,0,1.58.63,1.38,1.48-.38,1.6-.9,3.17-1.39,4.74a.62.62,0,0,1-.51.28.66.66,0,0,1-.39-.41c-.36-1.08.29-2,.52-3A12,12,0,0,0,972.35,135.41Z" transform="translate(-878.89 -70.32)" fill="#14181a"/>
  <path d="M1005.87,158.21c0-.74-.35-1.4.74-1.44a15.19,15.19,0,0,0,2.49-.64,7.42,7.42,0,0,1,2-.21c.27,0,.51.46.76.71-.22.22-.46.64-.65.62-1.54-.19-2.84.62-4.25.95A5.24,5.24,0,0,1,1005.87,158.21Z" transform="translate(-878.89 -70.32)" fill="#14181a"/>
  <path d="M935.24,123.87a9.74,9.74,0,0,0-1.28-4.31,2.29,2.29,0,0,1-.19-.83c0-.13,0-.36.13-.39s.49-.15.6,0a3.9,3.9,0,0,1,1.57,2.32,5.94,5.94,0,0,0,.42,1.67C936.82,123,936.32,123.7,935.24,123.87Z" transform="translate(-878.89 -70.32)" fill="#0f1310"/>
  <path d="M932.83,108.93c0,1.49,0,2.93,0,4.36a4.1,4.1,0,0,1-.46,1.41.65.65,0,0,1-.55.24.6.6,0,0,1-.35-.45c0-1.45,0-2.91,0-4.36C931.45,109.33,931.82,108.9,932.83,108.93Z" transform="translate(-878.89 -70.32)" fill="#14181a"/>
  <path d="M998.4,139.3c-.92-.33-1.42-.57-1.4-1.33,0-1.07,0-2.14,0-3.22,0-.49,0-.49,1.18-1.27a8,8,0,0,1,.2,2.87C998.43,137.25,998.4,138.15,998.4,139.3Z" transform="translate(-878.89 -70.32)" fill="#14181a"/>
  <path d="M944.69,110c-.65-.2-1.28-.37-1.89-.59a3.25,3.25,0,0,1-.67-.39c.27-.33.52-.67.82-1,0-.06.31,0,.41.07,1,.73,1.92.43,2.91,0,.29-.14,1-.28,1,.5,0,.47.07.87-.67.9A7.84,7.84,0,0,0,944.69,110Z" transform="translate(-878.89 -70.32)" fill="#0f1310"/>
  <path d="M1019.89,148.08c-.24-1.46.17-2.77-.54-3.94a.81.81,0,0,1,.23-.77,3.58,3.58,0,0,1,1.14,0c-.08.49.37.86.41,1.2a11,11,0,0,1-.16,2.92C1020.93,147.67,1020.38,147.81,1019.89,148.08Z" transform="translate(-878.89 -70.32)" fill="#14181a"/>
  <path d="M1014.85,155.79c.9-1.2,1.65-2.17,2.36-3.15.21-.29.3-.65.51-.92.06-.07.55,0,.57.15a2.3,2.3,0,0,1,.09,1.1,4.78,4.78,0,0,1-2.2,2.89C1016,156,1015.49,155.84,1014.85,155.79Z" transform="translate(-878.89 -70.32)" fill="#0f1310"/>
  <path d="M1022.94,152.19c-1.05-.15-2.09.17-3.17-.44-.61-.34-.44-.72-.42-1.08,0-.58.64-.46.87-.34a5.63,5.63,0,0,0,1.87.49c.39.05.72.56,1.08.86Z" transform="translate(-878.89 -70.32)" fill="#14181a"/>
  <path d="M947.78,136.88c-.1.45-.08.64-.17.72a15.91,15.91,0,0,1-1.66,1.52.88.88,0,0,1-.84-.07c-.17-.29-.31-.82-.15-1a8.64,8.64,0,0,1,1.43-1.47.71.71,0,0,1,.59-.17A5.13,5.13,0,0,1,947.78,136.88Z" transform="translate(-878.89 -70.32)" fill="#14181a"/>
  <path d="M1000.11,157.34c1.25.18,2.24.32,3.23.48.08,0,.16.24.16.37a.48.48,0,0,1-.14.39,3.66,3.66,0,0,1-3.39,0,1,1,0,0,1-.15-.83C999.85,157.54,1000.09,157.37,1000.11,157.34Z" transform="translate(-878.89 -70.32)" fill="#0f1310"/>
  <path d="M984.84,156.5c-2-.69-1-2.14-1.39-3.22a4.53,4.53,0,0,1,.67-.18,5,5,0,0,1,.72.05Z" transform="translate(-878.89 -70.32)" fill="#14181a"/>
  <path d="M938,129.66a1.79,1.79,0,0,1,.4-.87c.53-.45.77-1.48,1.73-1.19.48.14.19.91-.75,2-.22.27-.3.66-.51.93a.88.88,0,0,1-.6.19c-.09,0-.22-.19-.26-.31A3.45,3.45,0,0,1,938,129.66Z" transform="translate(-878.89 -70.32)" fill="#14181a"/>
  <path d="M1012.46,155.49c1.06.79,1.83,1.33,2.55,1.92.12.1.1.41.06.61s-.23.17-.36.18C1013.31,158.28,1012.48,157.46,1012.46,155.49Z" transform="translate(-878.89 -70.32)" fill="#14181a"/>
  <path d="M971.57,151.79a3.67,3.67,0,0,1,.43-.09c.22,0,.44,0,.74,0v2.66C971.38,154.05,971.38,154.05,971.57,151.79Z" transform="translate(-878.89 -70.32)" fill="#14181a"/>
  <path d="M965.31,150.76c.07,0,.35,0,.45.18.39.55-.43,2.14-1.08,2.15-.21,0-.51,0-.6-.17C963.68,152.38,964.5,150.8,965.31,150.76Z" transform="translate(-878.89 -70.32)" fill="#14181a"/>
  <path d="M996.84,160.15c-1.81-.54-1-1.8-1.29-2.85C997.05,157.76,997.05,157.76,996.84,160.15Z" transform="translate(-878.89 -70.32)" fill="#14181a"/>
  <path d="M898.88,79.1a2.79,2.79,0,0,1-2.28,2.83,1.28,1.28,0,0,1-.86-.13,3.05,3.05,0,0,1-1-3.81,2.74,2.74,0,0,1,2.76-1.16A2.19,2.19,0,0,1,898.88,79.1Z" transform="translate(-878.89 -70.32)" fill="#0f1310"/>
  <path d="M946.85,92.72c-.21,1.09-.72,1.35-1.51,1.33-1.46,0-2.92,0-4.53,0l-.09-1.32Z" transform="translate(-878.89 -70.32)" fill="#14181a"/>
  <path d="M928.76,94.5c-.14,0-.39,0-.41-.08-.2-.71-1-1.29-.48-2.18a2.75,2.75,0,0,0,.3-1c.06-.62.51-.41.84-.45.54,0,.72.34.54.7a5.91,5.91,0,0,0-.45,2.78C929.1,94.34,928.88,94.42,928.76,94.5Z" transform="translate(-878.89 -70.32)" fill="#0f1310"/>
  <path d="M955.37,93.13a1.22,1.22,0,0,1,.41-1.81,12,12,0,0,1,1.28-.81c.18-.1.55-.23.58-.18a1.37,1.37,0,0,1,.28.77,1.47,1.47,0,0,1-.37.76A3.37,3.37,0,0,1,955.37,93.13Z" transform="translate(-878.89 -70.32)" fill="#14181a"/>
</svg>
