<svg id="Layer_1" data-name="Layer 1" xmlns="http://www.w3.org/2000/svg" viewBox="0 0 136.2 157.8"><defs><style>.cls-1{fill:#6acc6a;}.cls-2{fill:#73e087;}.cls-3{fill:#7f672b;}.cls-4{fill:#6f492d;}.cls-5{fill:#73dd73;}.cls-6{fill:#fafaf6;}.cls-7{fill:#f9f8f4;}.cls-8{fill:#7ef28e;}.cls-9{fill:#f9f9f5;}.cls-10{fill:#967326;}</style></defs><title>tree-v2</title><path class="cls-1" d="M40.2,64.8A27.6,27.6,0,0,1,47,53.9a35,35,0,0,1,11.4-7.2l6.4-2.3a20.2,20.2,0,0,1-.3-8.5,22.3,22.3,0,0,1,9.4-14.6c5.5-4.1,11.6-6.7,18.5-6.9a31.3,31.3,0,0,1,15,3.6,33.2,33.2,0,0,1,13.5,12.5,39.2,39.2,0,0,1,2.2,5.1l3.5-.9c17.7-3.9,32.2,6.3,37.1,21.7,3.3,10.3,2.6,20.4-2.6,30a29.9,29.9,0,0,1-18.7,14.8l-3.9.8a2.1,2.1,0,0,0-1.3.7,43.8,43.8,0,0,1-12.8,9.7l-.8.4a.3.3,0,0,1-.1.2h0l-1.3.3-3.8,1.3-1.2.3a30.3,30.3,0,0,1-10.4.5l-5.1-.9-.9-.5-3.5-1.5,1.6-.5a17,17,0,0,0,10-4.5c5-4.6,7-10.4,6.8-17.1a23.5,23.5,0,0,0-2.8-10.1,19.3,19.3,0,0,0-6.6-7,30.2,30.2,0,0,0-8-3.6c-.6-.2-.7-.3-.6-.9a12.3,12.3,0,0,0,.3-3.3,15.9,15.9,0,0,0-3.1-8.3c-2.8-3.6-6.5-5.7-10.7-7.2a17.7,17.7,0,0,0-7.6-.9,22.3,22.3,0,0,0-9,3A25.6,25.6,0,0,0,61,57.8a12.9,12.9,0,0,0-2.9,5.7,22.2,22.2,0,0,0-12.5-.6,36.9,36.9,0,0,0-4.2,1.7Zm117.1,2.6c-.3-2.2-.6-4.8-1.1-7.5a25.7,25.7,0,0,0-4.6-11.2,19.3,19.3,0,0,0-8.6-6.9,27.7,27.7,0,0,0-9.8-2,40.8,40.8,0,0,0-13.9,1.3c-.5.2-1,.2-1.1-.6a23.3,23.3,0,0,0-.8-3.6,20.2,20.2,0,0,0-5.7-9.2,25.1,25.1,0,0,0-9.1-5.9,25.6,25.6,0,0,0-7.7-1.9A29.9,29.9,0,0,0,82,22.3,20.7,20.7,0,0,0,76,26a14.7,14.7,0,0,0-4.4,6.1,6.8,6.8,0,0,0-.1,2.5c.9-.1,1.9.2,2.6-.1,2.9-1.3,5.7-2.8,8.6-4.2s4.2-2.1,6.4-2.9a23.5,23.5,0,0,1,3.7-.5,10.3,10.3,0,0,1,6.9,1.3c3.2,1.6,5.3,4.4,7.1,7.4s2.6,5,4,7.4a12.8,12.8,0,0,0,5,4.8,14.6,14.6,0,0,0,7.5,1.3,37.7,37.7,0,0,1,11.6.9c4.1,1.1,7.6,3.1,10,6.7a23,23,0,0,1,3.5,10.2c.3,3,1,6,3.2,8.3s2.8,2.1,4,.5a5.1,5.1,0,0,0,1-2.4C156.9,71.5,157.1,69.7,157.3,67.4Z" transform="translate(-29.5 -14.4)"/><path class="cls-2" d="M40.2,64.8l1.2-.2a36.9,36.9,0,0,1,4.2-1.7,22.2,22.2,0,0,1,12.5.6A12.9,12.9,0,0,1,61,57.8a25.6,25.6,0,0,1,6.6-5.7,22.3,22.3,0,0,1,9-3,17.7,17.7,0,0,1,7.6.9c4.2,1.5,7.9,3.6,10.7,7.2A15.9,15.9,0,0,1,98,65.5a12.3,12.3,0,0,1-.3,3.3c-.1.6,0,.7.6.9a30.2,30.2,0,0,1,8,3.6,19.3,19.3,0,0,1,6.6,7,23.5,23.5,0,0,1,2.8,10.1c.2,6.7-1.8,12.5-6.8,17.1a17,17,0,0,1-10,4.5l-1.6.5a2.9,2.9,0,0,0-1-.3,29.7,29.7,0,0,1-10.2-1.9l-2.7-1.2c-.7-.4-1.2-.4-1.3.6l-4.5,4.6-4.1,2.3h-1c-6.6,2-12.8.7-18.4-3.1-2-1.3-3.6-3-5.5-4.5a2.6,2.6,0,0,0-1.1-.7c-11.3-1.9-17.7-11.3-18-21.7a24.5,24.5,0,0,1,5.4-16.9c1.2-1.4,2.7-2.5,4-3.8Zm15.5,7.8c1.5,0,2.5.1,3.5,0a13,13,0,0,0,3.3-.7c2.2-.9,3.5-2.7,4.6-4.7s2.4-4.8,4.3-6.8a7.9,7.9,0,0,1,5.1-2.8c3.5-.4,6.6.9,9.6,2.6l5.4,2.6c1.4.5,1.9-.1,1.4-1.5s-2.9-4.7-5.5-6.1a18.3,18.3,0,0,0-13.9-1.7,17.1,17.1,0,0,0-7.2,4A14.9,14.9,0,0,0,61.5,66c-.2,1.1-.4,1.3-1.5,1a27.9,27.9,0,0,0-4-.7,31,31,0,0,0-9.1.6A14.2,14.2,0,0,0,38,73.7a17.6,17.6,0,0,0-2.4,7.1c-.5,3-.9,5.9.1,8.8.2.7.5,1.5,1.3,1.5a3,3,0,0,0,1.9-.8A7.8,7.8,0,0,0,41,85.6,16.9,16.9,0,0,1,43.3,78a10.4,10.4,0,0,1,5.8-4.5A17.8,17.8,0,0,1,55.7,72.6Z" transform="translate(-29.5 -14.4)"/><path class="cls-3" d="M109,169l.5,2.3a250.5,250.5,0,0,0-33.6.9l3.7-3a19.7,19.7,0,0,0,4.6-7.4,52.5,52.5,0,0,0,3.4-15.1,99.8,99.8,0,0,0,.3-16.4,2,2,0,0,0-1-1.8c-3.6-2.5-7.1-5.2-10.6-7.8a7.8,7.8,0,0,1-2.8-4.1l4.1-2.3.9,1.7a5.8,5.8,0,0,0,4.1,3.2c1.4.3,2.7.8,4.1,1.2l5.3,1.3a70.2,70.2,0,0,0-6.1-6.1,9.7,9.7,0,0,1-3.8-5.9c.1-1,.6-1,1.3-.6l2.7,1.2a7.2,7.2,0,0,0,1.4,2.4c2.6,2.4,5.4,4.6,8,6.9.6.5.9.3,1.4-.2l4.8-4.9,5.1.9c-1.9,2.6-3.8,5.2-5.9,7.9l4.5-1.5,10.5-4.3a4.3,4.3,0,0,0,2.5-2.9l3.8-1.3,1.3-.3a15.1,15.1,0,0,0-.9,1.8c-2.7,5.6-7.4,9.1-12.5,12.2-2,1.2-4,2.4-6.1,3.5a2,2,0,0,0-1,1.6,47.7,47.7,0,0,0,1,14.1c1.4,7.3,3.1,14.5,4.6,21.8A10.4,10.4,0,0,1,109,169Zm-25.5-.4h.4l8.7-1.1c.2,0,.5-.4.5-.7.2-2.1.3-4.3.4-6.5.2-4.6.3-9.2.5-13.8,0-3.1.1-6.3.2-9.5v-.4c.1-2.3.3-4.7.4-7,0-.5-.2-.7-.7-.7H91.3c-.7-.1-1,.2-1,.9a29.4,29.4,0,0,1,0,4.2c-.3,4.2-.6,8.5-1,12.8s-.7,5.8-1.2,8.7C87.2,160.1,86.2,164.6,83.5,168.6Z" transform="translate(-29.5 -14.4)"/><path class="cls-4" d="M123.5,113a.3.3,0,0,0,.1-.2Z" transform="translate(-29.5 -14.4)"/><path class="cls-5" d="M157.3,67.4c-.2,2.3-.4,4.1-.7,5.9a5.1,5.1,0,0,1-1,2.4c-1.2,1.6-2.6,1-4-.5s-2.9-5.3-3.2-8.3a23,23,0,0,0-3.5-10.2c-2.4-3.6-5.9-5.6-10-6.7a37.7,37.7,0,0,0-11.6-.9,14.6,14.6,0,0,1-7.5-1.3,12.8,12.8,0,0,1-5-4.8c-1.4-2.4-2.6-5-4-7.4s-3.9-5.8-7.1-7.4a10.3,10.3,0,0,0-6.9-1.3,23.5,23.5,0,0,0-3.7.5c-2.2.8-4.3,1.9-6.4,2.9s-5.7,2.9-8.6,4.2c-.7.3-1.7,0-2.6.1a6.8,6.8,0,0,1,.1-2.5A14.7,14.7,0,0,1,76,26a20.7,20.7,0,0,1,6-3.7,29.9,29.9,0,0,1,12.9-2.4,25.6,25.6,0,0,1,7.7,1.9,25.1,25.1,0,0,1,9.1,5.9,20.2,20.2,0,0,1,5.7,9.2,23.3,23.3,0,0,1,.8,3.6c.1.8.6.8,1.1.6a40.8,40.8,0,0,1,13.9-1.3,27.7,27.7,0,0,1,9.8,2,19.3,19.3,0,0,1,8.6,6.9,25.7,25.7,0,0,1,4.6,11.2C156.7,62.6,157,65.2,157.3,67.4Z" transform="translate(-29.5 -14.4)"/><path class="cls-6" d="M101.7,114.5l-4.8,4.9c-.5.5-.8.7-1.4.2-2.6-2.3-5.4-4.5-8-6.9a7.2,7.2,0,0,1-1.4-2.4,29.7,29.7,0,0,0,10.2,1.9,2.9,2.9,0,0,1,1,.3l3.5,1.5Z" transform="translate(-29.5 -14.4)"/><path class="cls-7" d="M118.4,114.6a4.3,4.3,0,0,1-2.5,2.9l-10.5,4.3-4.5,1.5c2.1-2.7,4-5.3,5.9-7.9a30.3,30.3,0,0,0,10.4-.5Z" transform="translate(-29.5 -14.4)"/><path class="cls-8" d="M55.7,72.6a17.8,17.8,0,0,0-6.6.9A10.4,10.4,0,0,0,43.3,78,16.9,16.9,0,0,0,41,85.6a7.8,7.8,0,0,1-2.1,4.7,3,3,0,0,1-1.9.8c-.8,0-1.1-.8-1.3-1.5-1-2.9-.6-5.8-.1-8.8A17.6,17.6,0,0,1,38,73.7a14.2,14.2,0,0,1,8.9-6.8,31,31,0,0,1,9.1-.6,27.9,27.9,0,0,1,4,.7c1.1.3,1.3.1,1.5-1a14.9,14.9,0,0,1,4.8-8.5,17.1,17.1,0,0,1,7.2-4,18.3,18.3,0,0,1,13.9,1.7c2.6,1.4,4.6,3.2,5.5,6.1s0,2-1.4,1.5l-5.4-2.6c-3-1.7-6.1-3-9.6-2.6a7.9,7.9,0,0,0-5.1,2.8c-1.9,2-3,4.4-4.3,6.8s-2.4,3.8-4.6,4.7a13,13,0,0,1-3.3.7C58.2,72.7,57.2,72.6,55.7,72.6Z" transform="translate(-29.5 -14.4)"/><path class="cls-9" d="M82.1,109.7a9.7,9.7,0,0,0,3.8,5.9,70.2,70.2,0,0,1,6.1,6.1l-5.3-1.3c-1.4-.4-2.7-.9-4.1-1.2a5.8,5.8,0,0,1-4.1-3.2l-.9-1.7Z" transform="translate(-29.5 -14.4)"/><path class="cls-10" d="M81.8,168.9c3.2-4,4.3-8.6,5.3-13.1a64.5,64.5,0,0,0,1.4-8.8c.5-4.3.9-8.6,1.3-12.9.1-1.4,0-2.8,0-4.2s.3-1,1.1-1H94c.6,0,.9.3.8.8-.1,2.3-.3,4.7-.4,7,0,.2-.1.3-.1.5-.1,3.2-.1,6.4-.2,9.6s-.3,9.2-.5,13.9q-.1,3.3-.6,6.6a1,1,0,0,1-.6.7l-10.2,1Z" transform="translate(-29.5 -14.4)"/></svg>