<svg id="Layer_1" data-name="Layer 1" xmlns="http://www.w3.org/2000/svg" viewBox="0 0 367.23 99.78">
  <title>turtle-logo</title>
  <g>
    <g>
      <path d="M364.46,58.58l1.84,6.17.25,8.34a39.45,39.45,0,0,1-7.84,19.43,42.49,42.49,0,0,1-22.92,15.94c-.15,0-.29.12-.43.17a58.64,58.64,0,0,1-7.25,1,80.61,80.61,0,0,1-8.21-.66c-3-1.38-6.17-2.43-8.87-4.2-4.87-3.17-7.81-7.93-9.35-13.62,0-.14-.11-.27-.16-.41a1,1,0,0,0,0-.25A32.52,32.52,0,0,1,301.85,75a42.7,42.7,0,0,1,19.94-25.85A37.35,37.35,0,0,1,336.88,44a2.07,2.07,0,0,0,.43-.16c.29,0,.57,0,.86,0l7.55.36L351.83,46A24.35,24.35,0,0,1,364.46,58.58Z" transform="translate(-16.98 -26.25)" fill="#f0e635" stroke="#000" stroke-miterlimit="10"/>
      <path d="M345.72,44.18l-7.55-.36c-.29,0-.57,0-.86,0A4.77,4.77,0,0,0,332,40.52a116.61,116.61,0,0,0-11.61,2.15c-2.38.52-4.7,1.5-7.08,2a9.74,9.74,0,0,1-4.25.16c-2.12-.52-2.4-2.85-.86-4.77,3.61-4.5,8.28-7.49,13.38-9.84A33.61,33.61,0,0,1,335,26.76a10.54,10.54,0,0,1,9.51,4.94c2.25,3.36,2,7.28,1.46,11.24C345.91,43.35,345.8,43.77,345.72,44.18Z" transform="translate(-16.98 -26.25)" fill="#f0e635" stroke="#000" stroke-miterlimit="10"/>
      <path d="M366.55,73.09l-.25-8.34a71.3,71.3,0,0,1,7.55-.46c4.45.18,7.32,2.78,9,6.59,1.23,2.8,1,5.93.31,9A41.49,41.49,0,0,1,376.06,96a50.48,50.48,0,0,1-5.63,6.09,3.1,3.1,0,0,1-3.57.91,2.92,2.92,0,0,1-1.54-3.48c.45-2.4,1.25-4.76,1.79-7.16,1-4.42,2.1-8.84,2.78-13.29C370.36,76,368.72,73.62,366.55,73.09Z" transform="translate(-16.98 -26.25)" fill="#f0e635" stroke="#000" stroke-miterlimit="10"/>
      <path d="M364.46,58.58A24.35,24.35,0,0,0,351.83,46c3.57-1.34,6-3.9,8.13-7.05,3.06-4.56,7.13-7.55,12.69-7.62,4.91-.07,6.87,2.87,6.42,7.46a13.74,13.74,0,0,1-5,9.61c-1.57,1.31-3.19,2.59-4.87,3.75A13.87,13.87,0,0,0,364.72,58C364.63,58.2,364.55,58.39,364.46,58.58Z" transform="translate(-16.98 -26.25)" fill="#f0e635" stroke="#000" stroke-miterlimit="10"/>
      <path d="M301.85,75a32.52,32.52,0,0,0-.33,15.46,1,1,0,0,1,0,.25,81.94,81.94,0,0,1-8.64,3.41,7.17,7.17,0,0,1-7.36-1.72c-1-1-.94-2.51,0-4.18a26.3,26.3,0,0,1,8.72-9C296.69,77.7,299.31,76.43,301.85,75Z" transform="translate(-16.98 -26.25)" fill="#f0e635" stroke="#000" stroke-miterlimit="10"/>
      <path d="M319.9,109a80.61,80.61,0,0,0,8.21.66,58.64,58.64,0,0,0,7.25-1c-1.57,2.77-3,5.64-4.76,8.27a26.33,26.33,0,0,1-7.69,7.54c-3.09,2-5.61,1.32-6.47-2.08C315.22,117.51,317,113.1,319.9,109Z" transform="translate(-16.98 -26.25)" fill="#f0e635" stroke="#000" stroke-miterlimit="10"/>
    </g>
    <path d="M360.19,61.09l1.59,5.32L362,73.6a33.94,33.94,0,0,1-6.75,16.73,36.64,36.64,0,0,1-19.74,13.73c-.13,0-.25.1-.37.15a50.08,50.08,0,0,1-6.25.84,69.91,69.91,0,0,1-7.07-.57c-2.56-1.19-5.31-2.1-7.64-3.61-4.19-2.73-6.72-6.84-8.05-11.74a2.55,2.55,0,0,0-.14-.35.81.81,0,0,0,0-.22,28,28,0,0,1,.28-13.31A36.81,36.81,0,0,1,323.44,53a32.25,32.25,0,0,1,13-4.43,2,2,0,0,0,.38-.14c.24,0,.49,0,.74,0l6.5.31,5.27,1.53A21,21,0,0,1,360.19,61.09Z" transform="translate(-16.98 -26.25)" fill="#f0e635" stroke="#000" stroke-miterlimit="10" stroke-width="0.75"/>
    <line x1="318.74" y1="23.68" x2="317.35" y2="39.38" fill="none" stroke="#000" stroke-miterlimit="10" stroke-width="0.75"/>
    <path d="M335,67.17" transform="translate(-16.98 -26.25)" fill="none" stroke="#000" stroke-miterlimit="10" stroke-width="0.75"/>
    <path d="M358.49,75.76" transform="translate(-16.98 -26.25)" fill="none" stroke="#000" stroke-miterlimit="10" stroke-width="0.75"/>
    <path d="M345,76.28" transform="translate(-16.98 -26.25)" fill="none" stroke="#000" stroke-miterlimit="10" stroke-width="0.75"/>
    <line x1="343.9" y1="47.94" x2="327.79" y2="49.95" fill="none" stroke="#000" stroke-miterlimit="10" stroke-width="0.75"/>
    <line x1="318" y1="40.61" x2="326.8" y2="49.41" fill="none" stroke="#000" stroke-miterlimit="10" stroke-width="0.75"/>
    <line x1="316.7" y1="40.53" x2="308.01" y2="43.98" fill="none" stroke="#000" stroke-miterlimit="10" stroke-width="0.75"/>
    <line x1="303.7" y1="53.29" x2="307.15" y2="44.6" fill="none" stroke="#000" stroke-miterlimit="10" stroke-width="0.75"/>
    <line x1="327.01" y1="50.57" x2="323.56" y2="59.26" fill="none" stroke="#000" stroke-miterlimit="10" stroke-width="0.75"/>
    <line x1="314.25" y1="63.57" x2="322.94" y2="60.12" fill="none" stroke="#000" stroke-miterlimit="10" stroke-width="0.75"/>
    <line x1="304.31" y1="54.3" x2="313.1" y2="63.1" fill="none" stroke="#000" stroke-miterlimit="10" stroke-width="0.75"/>
    <line x1="289.57" y1="54.94" x2="303.1" y2="53.64" fill="none" stroke="#000" stroke-miterlimit="10" stroke-width="0.75"/>
    <line x1="312.28" y1="77.65" x2="313.67" y2="64.07" fill="none" stroke="#000" stroke-miterlimit="10" stroke-width="0.75"/>
    <line x1="323.85" y1="60.09" x2="332.65" y2="68.88" fill="none" stroke="#000" stroke-miterlimit="10" stroke-width="0.75"/>
    <line x1="298.31" y1="35.09" x2="307.11" y2="43.89" fill="none" stroke="#000" stroke-miterlimit="10" stroke-width="0.75"/>
  </g>
  <g>
    <path d="M17,83.62V31.08H38.74A13.68,13.68,0,0,1,45,32.52a16.47,16.47,0,0,1,4.92,3.77,18,18,0,0,1,3.26,5.3,16.17,16.17,0,0,1,1.18,6,17.85,17.85,0,0,1-1.11,6.25,16.83,16.83,0,0,1-3.11,5.29,15.47,15.47,0,0,1-4.77,3.7,13.44,13.44,0,0,1-6.18,1.41h-17V83.62Zm5.18-24H39a8.75,8.75,0,0,0,4.18-1A10.09,10.09,0,0,0,46.36,56a12.39,12.39,0,0,0,2.07-3.85,14.13,14.13,0,0,0,.74-4.55A12.73,12.73,0,0,0,46,39.14a10.53,10.53,0,0,0-3.4-2.55,9.49,9.49,0,0,0-4.11-.92H22.16Z" transform="translate(-16.98 -26.25)" fill="#464646"/>
    <path d="M77.73,84.36A18.28,18.28,0,0,1,70,82.77a19,19,0,0,1-6-4.33,19.44,19.44,0,0,1-4-6.37,21.27,21.27,0,0,1,0-15.31,20.41,20.41,0,0,1,4-6.37,19.35,19.35,0,0,1,6-4.36,17.69,17.69,0,0,1,7.62-1.63A17.9,17.9,0,0,1,85.39,46a19.18,19.18,0,0,1,6.07,4.36A20.55,20.55,0,0,1,96.9,64.45a20.78,20.78,0,0,1-1.41,7.62,19.44,19.44,0,0,1-4,6.37,18.85,18.85,0,0,1-6.06,4.33A18.57,18.57,0,0,1,77.73,84.36Zm-14-19.83a16.09,16.09,0,0,0,1.11,6,16.55,16.55,0,0,0,3,4.88,13.4,13.4,0,0,0,4.44,3.29,12.81,12.81,0,0,0,5.44,1.19,12.48,12.48,0,0,0,5.44-1.22,14.52,14.52,0,0,0,4.48-3.33,16,16,0,0,0,3-4.92,17,17,0,0,0,0-12.1,15.74,15.74,0,0,0-3-5,14.21,14.21,0,0,0-4.48-3.33,12.34,12.34,0,0,0-5.44-1.22,12.14,12.14,0,0,0-5.4,1.22,14.21,14.21,0,0,0-4.44,3.37,16.23,16.23,0,0,0-3,5A16.7,16.7,0,0,0,63.75,64.53Z" transform="translate(-16.98 -26.25)" fill="#464646"/>
    <path d="M105.56,29.6h5V74.89a4.61,4.61,0,0,0,1.18,3.36,4.4,4.4,0,0,0,3.33,1.22,9.83,9.83,0,0,0,1.93-.22,12.51,12.51,0,0,0,2.07-.59l.89,4.07a16,16,0,0,1-3.44,1,19.79,19.79,0,0,1-3.52.37,7.49,7.49,0,0,1-5.48-2,7.37,7.37,0,0,1-2-5.51Z" transform="translate(-16.98 -26.25)" fill="#464646"/>
    <path d="M126.87,95.46c.39.05.78.08,1.15.11s.72,0,1.07,0a5.09,5.09,0,0,0,2.11-.37,3.9,3.9,0,0,0,1.51-1.63A26.12,26.12,0,0,0,134.38,90c.62-1.58,1.49-3.7,2.63-6.36l-16.8-38.56h5.18L139.67,79l13.25-33.9h4.81l-20,49.73a9.19,9.19,0,0,1-2.7,3.74,7.76,7.76,0,0,1-5.15,1.59c-.49,0-1,0-1.4,0a15.17,15.17,0,0,1-1.63-.18Z" transform="translate(-16.98 -26.25)" fill="#464646"/>
    <path d="M180.08,84.36a18.54,18.54,0,0,1-7.74-1.59,18.9,18.9,0,0,1-6.1-4.37,20.34,20.34,0,0,1-4-6.4,20.88,20.88,0,0,1-1.44-7.77,20.38,20.38,0,0,1,1.44-7.66,20,20,0,0,1,4-6.29A18.94,18.94,0,0,1,172.31,46a19.49,19.49,0,0,1,15.42,0,18.31,18.31,0,0,1,6,4.33,20.29,20.29,0,0,1,5.32,13.84v1.18a2.9,2.9,0,0,1-.07.81H166a15.91,15.91,0,0,0,1.44,5.74,15.7,15.7,0,0,0,3.14,4.55,14.26,14.26,0,0,0,4.41,3,13.23,13.23,0,0,0,5.29,1.07A13.54,13.54,0,0,0,184,80a14.72,14.72,0,0,0,3.4-1.4,12.66,12.66,0,0,0,2.81-2.19,9.39,9.39,0,0,0,1.93-2.85l4.36,1.19A12.86,12.86,0,0,1,194,78.62a17.94,17.94,0,0,1-3.78,3,18.33,18.33,0,0,1-4.73,2A20.51,20.51,0,0,1,180.08,84.36Zm14.2-22a15.74,15.74,0,0,0-1.44-5.67,15.4,15.4,0,0,0-3.11-4.4,13.8,13.8,0,0,0-4.36-2.88,13.64,13.64,0,0,0-5.29-1,13.83,13.83,0,0,0-5.33,1,13.69,13.69,0,0,0-4.41,2.88,14.39,14.39,0,0,0-3,4.44,16.74,16.74,0,0,0-1.37,5.63Z" transform="translate(-16.98 -26.25)" fill="#464646"/>
    <path d="M204.2,64.23a21.29,21.29,0,0,1,1.4-7.7,19.34,19.34,0,0,1,4-6.32A18.66,18.66,0,0,1,215.67,46a19.45,19.45,0,0,1,7.84-1.55,18,18,0,0,1,9.55,2.48,15.91,15.91,0,0,1,6.14,6.69l-4.88,1.56a11.84,11.84,0,0,0-4.55-4.63,13.47,13.47,0,0,0-12-.48,14.07,14.07,0,0,0-4.44,3.22,14.67,14.67,0,0,0-3,4.85,17.76,17.76,0,0,0,0,12.28,15.73,15.73,0,0,0,3,5,14.52,14.52,0,0,0,4.48,3.33,12.47,12.47,0,0,0,5.43,1.22A13.12,13.12,0,0,0,227,79.4,14,14,0,0,0,230.39,78a12.14,12.14,0,0,0,2.67-2.11,6.77,6.77,0,0,0,1.55-2.52l5,1.48a12.51,12.51,0,0,1-2.37,3.81,16.28,16.28,0,0,1-3.66,3,17.85,17.85,0,0,1-4.66,2,19.8,19.8,0,0,1-5.29.71,18.74,18.74,0,0,1-13.92-6,20.31,20.31,0,0,1-4-6.4A20.88,20.88,0,0,1,204.2,64.23Z" transform="translate(-16.98 -26.25)" fill="#464646"/>
    <path d="M263.55,84.36a18.29,18.29,0,0,1-7.7-1.59,19,19,0,0,1-6-4.33,19.77,19.77,0,0,1-4-6.37,21.21,21.21,0,0,1,0-15.31,20.2,20.2,0,0,1,4-6.37,19.46,19.46,0,0,1,6-4.36,17.7,17.7,0,0,1,7.63-1.63A18,18,0,0,1,271.21,46a19.25,19.25,0,0,1,6.06,4.36,20.05,20.05,0,0,1,4,6.37,20.61,20.61,0,0,1,1.44,7.69,21,21,0,0,1-1.4,7.62,19.77,19.77,0,0,1-4,6.37,18.9,18.9,0,0,1-6.07,4.33A18.53,18.53,0,0,1,263.55,84.36Zm-14-19.83a16.09,16.09,0,0,0,1.11,6,16.37,16.37,0,0,0,3,4.88,13.4,13.4,0,0,0,4.44,3.29,12.74,12.74,0,0,0,5.44,1.19A12.55,12.55,0,0,0,269,78.7a14.6,14.6,0,0,0,4.47-3.33,16,16,0,0,0,3-4.92,17,17,0,0,0,0-12.1,15.76,15.76,0,0,0-3-5A14.28,14.28,0,0,0,269,50.06a12.4,12.4,0,0,0-5.44-1.22,12.15,12.15,0,0,0-5.41,1.22,14.45,14.45,0,0,0-4.44,3.37,16.23,16.23,0,0,0-3,5A16.7,16.7,0,0,0,249.56,64.53Z" transform="translate(-16.98 -26.25)" fill="#464646"/>
  </g>
</svg>
