<svg id="Layer_1" data-name="Layer 1" xmlns="http://www.w3.org/2000/svg" viewBox="0 0 320.6 497.9"><defs><style>.cls-1{fill:#f4f4f4;}.cls-2{fill:#d8d8d8;}.cls-3{fill:#f0f0f0;}</style></defs><title>plastic-bag</title><path class="cls-1" d="M53.6,410.1c2.3-18.9,4.7-37.7,7.1-56.6,2-16.2,3.8-32.5,6.5-48.6,1.2-7.8,4.4-15.3,6.2-23,1.3-5.2,1.8-10.6,2.6-15.9.2-1,.3-2,.5-3,6.9-25.2,13-50.7,20.8-75.6a542.9,542.9,0,0,1,21.9-58.2C128,109.3,138.1,90,148.7,71c7.7-13.5,17-26.3,30.6-34.8,9.4-5.8,19.3-10.3,30.8-10.3,8.4.1,15.3,4.1,22.2,8,14.6,8.1,24.6,20.7,34,34.3,14.9,21.8,27.3,45.1,38.1,69.1a623.7,623.7,0,0,1,24.2,61c6.7,20.4,10.4,41.7,16.6,62.3,2.7,8.6,2.5,17.5,5,25.8,5.9,19,6.7,39,11.3,58.2s7.8,41.3,11.4,62c2.7,15.5.8,30.8-3.7,45.6a385.1,385.1,0,0,1-14,38.1c-4.7,11.1-14.4,16.4-25.6,19.7-16.9,4.9-34.3,6.5-51.8,8.1-14.1,1.3-28.2,3.3-42.4,4.8a170.5,170.5,0,0,1-41.6-.7c-13.1-1.8-26.3-2.6-39.4-4.3-15.4-2-30.7-4.3-46.1-6.7-11-1.7-18.1-9.2-24.1-17.8-13.7-19.9-22.8-42-28.7-65.2-1.5-5.6-.3-11.9-.3-17.9ZM264,121v4l4,13v3l2,5v2l3,6v5l3,10v5l2,2v4c.3,1.7.7,3.3,1,5v3l1,2,1,4,1,6c-.7,9.2-.9,18.5-2.1,27.7-2.5,19.4-11,34.8-30,42.9A124.5,124.5,0,0,1,213,280a65.7,65.7,0,0,1-41.5-9.2c-1.4-.9-3.1-1.3-5.9-2.4,1.9,3.8,3,6.3,4.5,8.7,5.2,8.5,12.6,13.7,22.4,16,14,3.3,28.3,2.9,42.6,2.9a44.1,44.1,0,0,0,28-9.9c8.1-6.3,15.5-13.5,22.8-20.7a27.1,27.1,0,0,0,6.8-9.7,111,111,0,0,0,5.6-20.5c1.3-7.9,3.6-16.4,1.9-23.8-3.9-16.8-9.8-33.2-15.4-49.6-3.7-10.8-8.5-21.2-12.8-31.8L256.9,93.1l-2.2.8c1.4,8,4.2,15.6,7.3,23.1v2ZM218,46l-3.8-3.2c-3.8-2.9-10.3-2.9-13.2.9s-7.6,10.5-9.8,16.3c-4.8,12.5-8.3,25.5-12.9,38.1-8.6,24-17.5,47.9-21.8,73.1a282.7,282.7,0,0,0-4.2,39.9c-.3,10.9,2.2,22,12.1,28.6s18.5,14,29.8,18.1c14.5,5.4,28.5,5.3,41.3-3.1,7.5-5,14.1-11.7,20.3-18.3a43.2,43.2,0,0,0,12.1-33.6,210.8,210.8,0,0,0-4.4-29.4c-4.8-20.5-9.8-41-15.6-61.3a308.3,308.3,0,0,0-13.2-36.3c-3.9-9.2-9.1-17.9-13.7-26.8,1.2.3,3.1,0,3.6.8,3.6,5.1,7.2,10.3,10.3,15.6s4.1,8.5,6.1,12.7c4.3-12.7-10.6-35.7-23.9-38.9C217.4,41.7,217.7,43.8,218,46Zm19.8,455.1.9,1.7a21.3,21.3,0,0,0,4.4.2c13.8-2.1,27.8-3.8,41.5-6.5a224.6,224.6,0,0,0,32.4-8.8c13.5-5,21.7-16.6,30.3-27.3s10.1-20.5,8.6-32.3c-1.6-13.4-3.4-26.8-5.8-40.1-3.4-18.7-7.4-37.3-11.1-55.9a23.9,23.9,0,0,0-1.5-3.7,4.4,4.4,0,0,0-1.5,3.3c-.3,19.2-.5,38.3-1.1,57.4-.4,11.9-1,23.9-5.9,35-5.7,13.2-12.8,25.8-24.8,34.1-17.4,12.1-35.6,23-53.5,34.5C246.4,495.4,242.1,498.3,237.8,501.1ZM164.1,91.8l-1.4-.6a16.6,16.6,0,0,0-1.6,2.1c-4.9,9.6-9.8,19.1-14.6,28.7s-9.7,17.5-13,26.8c-5.4,14.9-10.9,29.9-12.3,45.8-.8,8.9-1.8,18.2,4.1,26s12.7,16.2,19.2,24.1c.7.9,2.6.8,4.8,1.3-4.1-10.8-8.2-20.4-11.3-30.3-2-6.5-4.6-13.8-3.5-20.2,2.4-14.6,6.6-29,10.7-43.2s8.5-27.2,12.7-40.8C160,105,162,98.4,164.1,91.8Zm1.4,411.7c.1-.8.3-1.6.4-2.4-13.8-6.1-28.2-11.2-41.3-18.6S100,465.2,87,455.9a22.7,22.7,0,0,0,.8,4.6c2.7,7.6,5.8,15.1,8.3,22.9,4.1,12.9,14.5,16.2,26.2,17.6,9.7,1.1,19.4,2.1,29.1,2.8C156.1,504.1,160.8,503.6,165.5,503.5Zm-78-195.8-1.1-.3c-1.5,3.9-3.4,7.7-4.4,11.8-2.3,9.7-4.5,19.6-6.3,29.4-2.5,13.5-5.1,27-6.5,40.5s2,29,5.1,43.3c1.2,5.4,2.7,10.9,4,16.3h1.5c.4-1.5,1.1-3.1,1-4.5-1.2-14.4-2.7-28.7-3.7-43-1.2-16.7,1.2-33.1,3.6-49.5C82.8,336.9,85.2,322.3,87.5,307.7ZM248.1,72.1C250.3,53.4,236.7,36.5,222,37c5.1,4.8,11.4,9.2,15.7,15S244.7,65.3,248.1,72.1Zm-73.3-4.8,19.3-26.5C183.6,42.8,172.3,58.2,174.8,67.3Z" transform="translate(-53.6 -25.9)"/><path class="cls-2" d="M237.8,501.1c4.3-2.8,8.6-5.7,12.9-8.4,17.9-11.5,36.1-22.4,53.5-34.5,12-8.3,19.1-20.9,24.8-34.1,4.9-11.1,5.5-23.1,5.9-35,.6-19.1.8-38.2,1.1-57.4a4.4,4.4,0,0,1,1.5-3.3,23.9,23.9,0,0,1,1.5,3.7c3.7,18.6,7.7,37.2,11.1,55.9,2.4,13.3,4.2,26.7,5.8,40.1,1.5,11.8-1.1,22.8-8.6,32.3s-16.8,22.3-30.3,27.3a224.6,224.6,0,0,1-32.4,8.8c-13.7,2.7-27.7,4.4-41.5,6.5a21.3,21.3,0,0,1-4.4-.2Z" transform="translate(-53.6 -25.9)"/><path class="cls-2" d="M268,141v-3a11.6,11.6,0,0,0-4-13c0-1.3-1-2.7-1-4s-.3-1.3-1-2v-2l2.3-1.9c1,2.2,1.6,4.1,2.6,5.8s3.4,6.1,5.1,9.1c4.3,10.6,9.1,21,12.8,31.8,5.6,16.4,11.5,32.8,15.4,49.6,1.7,7.4-.6,15.9-1.9,23.8a111,111,0,0,1-5.6,20.5,27.1,27.1,0,0,1-6.8,9.7c-7.3,7.2-14.7,14.4-22.8,20.7a44.1,44.1,0,0,1-28,9.9c-14.3,0-28.6.4-42.6-2.9-9.8-2.3-17.2-7.5-22.4-16-1.5-2.4-2.6-4.9-4.5-8.7,2.8,1.1,4.5,1.5,5.9,2.4A65.7,65.7,0,0,0,213,280a124.5,124.5,0,0,0,36.9-9.4c19-8.1,27.5-23.5,30-42.9,1.2-9.2,1.4-18.5,2.1-27.7-.3-2-.7-4-1-6l-1-4-1-2v-3c1.3-2,2.1-3.9-1-5,0-1.3-1-2.7-1-4s0,0-1-2v-5l-3-10c0-1.7-1-3.3-1-5s-1-4-2-6v-2C271.8,143.3,270.4,142,268,141Z" transform="translate(-53.6 -25.9)"/><path class="cls-2" d="M164.1,91.8c-2.1,6.6-4.1,13.2-6.2,19.7-4.2,13.6-8.9,27.1-12.7,40.8s-8.3,28.6-10.7,43.2c-1.1,6.4,1.5,13.7,3.5,20.2,3.1,9.9,7.2,19.5,11.3,30.3-2.2-.5-4.1-.4-4.8-1.3-6.5-7.9-13-15.9-19.2-24.1s-4.9-17.1-4.1-26c1.4-15.9,6.9-30.9,12.3-45.8,3.3-9.3,8.5-17.9,13-26.8s9.7-19.1,14.6-28.7a16.6,16.6,0,0,1,1.6-2.1Z" transform="translate(-53.6 -25.9)"/><path class="cls-2" d="M165.5,503.5c-4.7.1-9.4.6-14.1.3-9.7-.7-19.4-1.7-29.1-2.8-11.7-1.4-22.1-4.7-26.2-17.6-2.5-7.8-5.6-15.3-8.3-22.9a22.7,22.7,0,0,1-.8-4.6c13,9.3,24.6,19.1,37.6,26.6s27.5,12.5,41.3,18.6C165.8,501.9,165.6,502.7,165.5,503.5Z" transform="translate(-53.6 -25.9)"/><path class="cls-2" d="M87.5,307.7c-2.3,14.6-4.7,29.2-6.8,43.9-2.4,16.4-4.8,32.8-3.6,49.5,1,14.3,2.5,28.6,3.7,43,.1,1.4-.6,3-1,4.5H78.3c-1.3-5.4-2.8-10.9-4-16.3-3.1-14.3-6.6-28.6-5.1-43.3s4-27,6.5-40.5c1.8-9.8,4-19.7,6.3-29.4,1-4.1,2.9-7.9,4.4-11.8Z" transform="translate(-53.6 -25.9)"/><path class="cls-2" d="M221,49l-3-3c-.3-2.2-.6-4.3-.9-6.8,13.3,3.2,28.2,26.2,23.9,38.9-2-4.2-3.7-8.6-6.1-12.7s-6.7-10.5-10.3-15.6C224.1,49,222.2,49.3,221,49Z" transform="translate(-53.6 -25.9)"/><path class="cls-2" d="M248.1,72.1c-3.4-6.8-6-14.1-10.4-20.1S227.1,41.8,222,37C236.7,36.5,250.3,53.4,248.1,72.1Z" transform="translate(-53.6 -25.9)"/><path class="cls-2" d="M174.8,67.3c-2.5-9.1,8.8-24.5,19.3-26.5Z" transform="translate(-53.6 -25.9)"/><path class="cls-2" d="M272,130c-1.7-3-3.5-6-5.1-9.1s-1.6-3.6-2.6-5.8L262,117c-3.1-7.5-5.9-15.1-7.3-23.1l2.2-.8Z" transform="translate(-53.6 -25.9)"/><path class="cls-2" d="M264,125a11.6,11.6,0,0,1,4,13Z" transform="translate(-53.6 -25.9)"/><path class="cls-3" d="M273,159l3,10Z" transform="translate(-53.6 -25.9)"/><path class="cls-3" d="M281,194c.3,2,.7,4,1,6C281.7,198,281.3,196,281,194Z" transform="translate(-53.6 -25.9)"/><path class="cls-2" d="M268,141c2.4,1,3.8,2.3,2,5Z" transform="translate(-53.6 -25.9)"/><path class="cls-2" d="M278,180c3.1,1.1,2.3,3,1,5C278.7,183.3,278.3,181.7,278,180Z" transform="translate(-53.6 -25.9)"/><path class="cls-3" d="M279,188l1,2Z" transform="translate(-53.6 -25.9)"/></svg>